<svg xmlns="http://www.w3.org/2000/svg" xmlns:xlink="http://www.w3.org/1999/xlink" width="324" height="184.784" viewBox="0 0 324 184.784">
  <defs>
    <linearGradient id="linear-gradient" x1="0.5" y1="1" x2="0.5" gradientUnits="objectBoundingBox">
      <stop offset="0" stop-color="gray" stop-opacity="0.251"/>
      <stop offset="0.54" stop-color="gray" stop-opacity="0.122"/>
      <stop offset="1" stop-color="gray" stop-opacity="0.102"/>
    </linearGradient>
    <linearGradient id="linear-gradient-2" x1="0" y1="0.5" x2="1" y2="0.5" xlink:href="#linear-gradient"/>
  </defs>
  <g id="undraw_winners_ao2o" transform="translate(0.02 0)">
    <path id="Path_783" data-name="Path 783" d="M223.529,282.455c6.259-.357,14.025-4.6,20.063-6.48q10.72-3.325,21.524-6.4,37.613-10.7,76.034-18.239,3.585-.705,7.182-1.376a50.839,50.839,0,0,0-16.783-20.156,51.562,51.562,0,0,0,.283-5.319c0-28.078-22.439-50.839-50.128-50.839a49.329,49.329,0,0,0-24.328,6.386c-19.6-12.892-45.178-20.694-73.165-20.694-39.769,0-74.68,15.755-94.462,39.48l92.973,15.707,57.022,9.629c-65.006,1.94-130.212,3.869-195.031-.685a51.38,51.38,0,0,0-7.4,64.855h0c0,1.017.042,2.025.119,3.025,1.651.473,3.246.932,4.676,1.232q34.441,7.276,69.324,12.178C94.3,315.327,73.427,316.823,53.659,321.3a57.93,57.93,0,0,0,36.9,12.745H303.848c23.1,0,41.816-16.078,41.816-35.914h0a51.03,51.03,0,0,0,6.8-18.661C309.725,283.593,266.456,280.011,223.529,282.455Z" transform="translate(-28.774 -149.257)" fill="#3f51b5" opacity="0.1"/>
    <path id="Path_784" data-name="Path 784" d="M351.979,269.657a50.978,50.978,0,0,0-21.524-41.751,52.308,52.308,0,0,0,.283-5.316c0-28.078-22.45-50.831-50.128-50.831a49.358,49.358,0,0,0-24.331,6.384c-19.6-12.9-45.181-20.7-73.168-20.7-45.523,0-84.709,20.66-102.086,50.287-.966-.057-1.937-.088-2.917-.088-27.681,0-50.128,22.762-50.128,50.839a51.128,51.128,0,0,0,8.247,27.944h0c0,25.262,23.844,45.742,53.244,45.742h213.3c23.093,0,41.813-16.081,41.813-35.917h0A51.125,51.125,0,0,0,351.979,269.657Z" transform="translate(-28 -147.896)" fill="#3f51b5" opacity="0.1"/>
    <path id="Path_785" data-name="Path 785" d="M779.838,287.836a3.155,3.155,0,0,0-1.382-.606c-.53-.122-1.071-.2-1.609-.283l-6.973-1.005a8.214,8.214,0,0,0-2.135-.113,2.71,2.71,0,0,0-1.858.963,1.447,1.447,0,0,0-.323.906,2.392,2.392,0,0,0,.317.94,3.145,3.145,0,0,1,.173.416,9.505,9.505,0,0,0,.249.949.807.807,0,0,0,.119.187.317.317,0,0,1,0,.048c-.076.391.17.8.06,1.175-.1.323-.411.518-.609.787a1.184,1.184,0,0,0-.028,1.306c.212.329.6.552.708.929.145.5-.246.974-.595,1.357a21.036,21.036,0,0,0-1.773,2.235,1.385,1.385,0,0,0-.283.666c-.031.493.442.926.36,1.416-.065.385-.442.62-.768.85a4.776,4.776,0,0,0-2.266,3.509,12.292,12.292,0,0,0-2.741-6.231,4.453,4.453,0,0,1-1.017-1.594c-.062-.246-.074-.51-.159-.748-.283-.75-1.184-1.073-1.578-1.764-.283-.487-.283-1.113-.634-1.541s-.9-.524-1.206-.937a6,6,0,0,1-.385-.872,1.907,1.907,0,0,0-.524-.629,1.521,1.521,0,0,0-.13-.094.45.45,0,0,0,.15-.334c0-.331-.329-.549-.615-.714-.368-.21-.728-.436-1.079-.671a2.524,2.524,0,0,0,.966-.79,2.6,2.6,0,0,0,.368-1.7,2.144,2.144,0,0,0-.507-1.3c-.178-.19-.4-.326-.589-.5a4.134,4.134,0,0,1-.85-1.818,3.7,3.7,0,0,0-1.458-2.192c-.374-.218-.81-.32-1.175-.549a1.026,1.026,0,0,1-.544-1.079c.085-.283.348-.479.527-.719a1.433,1.433,0,0,0-.36-1.983c-.21-.133-.467-.249-.51-.493a.9.9,0,0,1-.657-.7,2.688,2.688,0,0,1,0-1.008q.111-.79.218-1.575a1.025,1.025,0,0,0,.787,0,6.936,6.936,0,0,0,.85,1.11,11.093,11.093,0,0,1,1.983,3.441,2.072,2.072,0,0,0,.745,1.2c.144.082.309.125.45.212a1.681,1.681,0,0,1,.442.453c.34.45.68.9,1.017,1.348l.017.068a.4.4,0,0,0,.045.113.376.376,0,0,0,.244.125,4.128,4.128,0,0,0,3.115-.108c.816-.51,1.172-1.518,1.863-2.192.49-.479,1.184-.85,1.323-1.524a5,5,0,0,1-.487-.178c.142-.142.283-.306.476-.493a6,6,0,0,0,.753-.9,5.787,5.787,0,0,0,.566-1.269q.819-2.334,1.643-4.67c.261-.736.521-1.478.85-2.195.34-.776.742-1.521,1.113-2.283a30.3,30.3,0,0,0,2.2-6.2,2.267,2.267,0,0,0,.088-.9,2.382,2.382,0,0,0-.8-1.223,5.9,5.9,0,0,0-1.207-1,1.983,1.983,0,0,0-1.512-.244,2.185,2.185,0,0,0-1.348,1.7,17.8,17.8,0,0,0-.176,2.266c-.1,1.09-.476,2.144-.566,3.237-.048.632,0,1.272-.076,1.9a6.946,6.946,0,0,1-.85,2.345,15.182,15.182,0,0,1-3.662,4.514c-.173.144-.351.283-.521.439a2.706,2.706,0,0,1,.037-.368,2.221,2.221,0,0,0-.36.127,1.081,1.081,0,0,0-.042-.425c-.227-.677-1.235-.85-1.416-1.538a3.132,3.132,0,0,1-.048-.515,13.108,13.108,0,0,0-.612-1.7,7.257,7.257,0,0,0-.283-1.634,4.57,4.57,0,0,0-.753-.85,3.333,3.333,0,0,1-.717-1.351c-.037-.139-.071-.283-.11-.422a1.932,1.932,0,0,0-.1-.932c-.258-.64-.923-1.051-1.164-1.7-.187-.5-.1-1.133-.459-1.524a1.656,1.656,0,0,0-.671-.4,14.932,14.932,0,0,0-4.041-.954,3.442,3.442,0,0,1-2.186-.657c-.649-.634-.68-1.776-1.439-2.266a1.719,1.719,0,0,0-2.133.5,2.723,2.723,0,0,0-.215.283,3.033,3.033,0,0,1-.059-1.161c0-.1.02-.2.028-.283a5.665,5.665,0,0,0,3.07-2.424v.017l.034.088c.082.207.212.4.4.428h0a.566.566,0,0,0,.351-.127,2.909,2.909,0,0,0,.47-.408q.108-.119.2-.246a3.208,3.208,0,0,0,.334-.566,3.365,3.365,0,0,0,.283-.949c.051-.329.057-.666.113-.994a6.131,6.131,0,0,1,.207-.751c.028-.082.057-.164.082-.246s.062-.193.091-.283a6.558,6.558,0,0,0,.283-1.8v-.306a2.988,2.988,0,0,0-.952-2.11c-.487-.4-1.133-.566-1.49-1.107a5.27,5.27,0,0,1-.419-1.255,2.832,2.832,0,0,0-2.226-2,2.478,2.478,0,0,0-1.762.484h0l-.04.031h0a2.831,2.831,0,0,0-.7.782,2.336,2.336,0,0,1-1-.566c-.283-.263-.5-.595-.787-.85a2.025,2.025,0,0,0-2.016-.425,2.41,2.41,0,0,0-1.442,1.651,5.756,5.756,0,0,1-.453,1.742c-.252.38-.666.566-.954.912a1.716,1.716,0,0,0-.357.756h0a2.05,2.05,0,0,0-.048.473h0a.86.86,0,0,0,.017.21v.034a1.486,1.486,0,0,0,.048.229h0a1.981,1.981,0,0,0,.422.776,1.864,1.864,0,0,0,.682.493,2.776,2.776,0,0,0,.329.1l.337.076.119.028a5.647,5.647,0,0,0-.159,4.987,2.274,2.274,0,0,1-.028.238,19.584,19.584,0,0,0,.147,3.339,1.792,1.792,0,0,1-.207,1.272,2.411,2.411,0,0,1-.411.365c.153-.2.309-.394.467-.589a2.019,2.019,0,0,0-1.6-.413,7.4,7.4,0,0,0-3.115.952,3.487,3.487,0,0,1-2.011.765c-.428-.048-.85-.283-1.266-.17a2.564,2.564,0,0,0-.649.385.878.878,0,0,1-.532.164,11.5,11.5,0,0,0-1.665-1.362,13.119,13.119,0,0,1-1.657-1.776c-.918-1.107-1.832-2.218-2.733-3.336a6.424,6.424,0,0,1-1.671-3.161,3.053,3.053,0,0,1-.02-.36,9.14,9.14,0,0,1,.215-1.7.848.848,0,0,0,0-.411c-.085-.283-.411-.388-.691-.45h0c.037-.218.062-.442.076-.654a49.663,49.663,0,0,1,.5-7.3,4.959,4.959,0,0,1,1.175-2.512c1.034-1.045,2.764-1.3,3.557-2.535a2.891,2.891,0,0,0-.433-3.4,4.289,4.289,0,0,0-3.336-1.235,1.722,1.722,0,0,0-.971.261,2.065,2.065,0,0,0-.589.895l-1.215,2.954a17.857,17.857,0,0,0-.889,2.373c-.34,1.24-.416,2.549-.685,3.8a9.884,9.884,0,0,1-.96,3.05c-.38,1-.79,1.982-1.133,3-.085.255-.382,1.011-.566,1.7a1.039,1.039,0,0,0-.193.144,5.134,5.134,0,0,0-.4.6c-.258.34-.677.521-.96.85s-.343.932.051,1.1a1.153,1.153,0,0,0,.246.054.8.8,0,0,1,.682,1.122c-.062.442-.283.85-.32,1.291a3.485,3.485,0,0,0,.824,2.167,18.664,18.664,0,0,0,1.512,2.036c.4.447.85.85,1.252,1.28,1.532,1.575,2.75,3.416,4.126,5.126a11.366,11.366,0,0,0,1.68,1.762,12.643,12.643,0,0,0,1.272.875l2.368,1.5a2.6,2.6,0,0,0,.895.422,1.2,1.2,0,0,0,.317,0c.014.071.026.139.042.21a12.471,12.471,0,0,1,.634,2.172c.045.756-.023,1.529.031,2.294.051.705.207,1.416.246,2.11a13.56,13.56,0,0,1-.566,3.965,23.645,23.645,0,0,1-1.7,5.6,3.3,3.3,0,0,0-.566,1.512.784.784,0,0,0,.017.2h0l-.425.241c-.125.071-.249.142-.362.215a3.031,3.031,0,0,0-1.334,1.345c-.178.49-.1,1.051-.312,1.526a.662.662,0,0,1-.034.062c-.227.442-.677.77-.779,1.255h0c-.076.371.071.765,0,1.133v.014a4.084,4.084,0,0,0-.153.566.676.676,0,0,0,.017.187,1.079,1.079,0,0,0,.34.552,2.259,2.259,0,0,0,.331.263q.181.119.374.221l.074.04c.108.057.215.11.326.161l.074.031c.127.057.258.108.388.153l.091.028c.1.034.207.065.312.091l.071.023.065.014.283.06.1.02q.187.031.382.051h.113c.1,0,.19.014.283.017h.518a3.165,3.165,0,0,0,.4-.037h.042c.119-.017.238-.037.357-.062l.091-.02c.11-.026.221-.051.331-.085l.06-.017c.133-.04.266-.082.4-.133a10.414,10.414,0,0,0,1.308-.649c.283-.156.566-.314.85-.459a6.6,6.6,0,0,1,.646-.283,3.645,3.645,0,0,1,1.7-.283,6.669,6.669,0,0,1,.85.173v.093q.346,2.039.683,4.078a8.305,8.305,0,0,1,1.172-.705,2.6,2.6,0,0,0-.15.637,2.522,2.522,0,0,0,0,.507,1.1,1.1,0,0,1-.079.779c-.1.13-.283.2-.337.351a1.2,1.2,0,0,0-.028.462.736.736,0,0,1-.674.685,1.076,1.076,0,0,1-.428,1.263,1.5,1.5,0,0,0-.329.215.98.98,0,0,0-.19.428,7.569,7.569,0,0,1-2.218,3.645,7.127,7.127,0,0,0-1.1,1.071,4.872,4.872,0,0,0-.5.977q-1.133,2.77-2.3,5.542a12.3,12.3,0,0,0-.986,3.2c-.34,3.053-3.059,5.642-2.549,8.672a4.248,4.248,0,0,0,.884,2.07,5.211,5.211,0,0,0,2.266,1.391,41.249,41.249,0,0,0,6.78,1.781l3.6.739a15.747,15.747,0,0,0,2.147.34,14.051,14.051,0,0,1,2.608.2,8.1,8.1,0,0,0,1.566.416c.464.026,1.036-.074,1.311.306s.062.881.323,1.218c.419.535,1.441,0,1.9.5a2.345,2.345,0,0,1,.283.626,1.132,1.132,0,0,0,.283.357,2.393,2.393,0,0,1,.034.484,8.349,8.349,0,0,1-.408,1.932q-.51,1.725-1.017,3.452a7.655,7.655,0,0,0-.283,1.246,2.982,2.982,0,0,0,0,.617,1.7,1.7,0,0,0,1.017,1.476,1.863,1.863,0,0,0,1.376-.17,6.081,6.081,0,0,0,1.133-.765,7.733,7.733,0,0,0,1.634-1.682c1.416-2.118.957-4.984,1.951-7.327.66-1.563,1.946-2.832,2.373-4.48a1.794,1.794,0,0,0,.034-.969,2.007,2.007,0,0,0-1.345-1.093h-.026a11.612,11.612,0,0,0-1.416-.405c-.119-.026-.241-.045-.362-.065a2.224,2.224,0,0,1-.626-.816,1.9,1.9,0,0,0-.133-.49.51.51,0,0,0-.408-.227c-.283-.028-.663.074-.971.051-.632-.045-1.051-.666-1.617-.952a3.3,3.3,0,0,0-1.784-.173,1.652,1.652,0,0,1-.646-.04,2.427,2.427,0,0,1-.68-.467,2.849,2.849,0,0,0-2.5-.5,2.718,2.718,0,0,1-.85.193c-.552-.031-.943-.524-1.351-.9-1.116-1.022-2.7-1.291-4.058-1.963a.926.926,0,0,1-.487-.419c-.156-.385.2-.77.513-1.034l2.328-1.934c2.549-2.118,5.735-3.713,6.919-6.82a3.944,3.944,0,0,1,.566-1.164,1.582,1.582,0,0,1,.314-.283,2.379,2.379,0,0,1,1.742-.34,5.883,5.883,0,0,1,2.05.895q1.521.92,2.96,1.982a26.194,26.194,0,0,1,2.7,2.22c1.487,1.416,2.724,3.1,4.109,4.622a13.2,13.2,0,0,0,4.891,3.682,6.294,6.294,0,0,0,5.9-.527c1.906-1.416,2.518-3.948,3-6.27,1.062-1.025,1.382-2.586,1.9-3.965.326-.875.742-1.7,1.093-2.572.419-1.025.748-2.084,1.076-3.141a15.112,15.112,0,0,0,.753-3.277c.136-1.764-.337-3.642.159-5.3a19.513,19.513,0,0,0,1.892-.728,9.375,9.375,0,0,1,3-.258h.065a1.546,1.546,0,0,0,1-.235,1.587,1.587,0,0,0,.411-1.206A3.682,3.682,0,0,0,779.838,287.836ZM738.8,239.526a2.1,2.1,0,0,1-.716.051Z" transform="translate(-515.254 -197.223)" fill="url(#linear-gradient)"/>
    <path id="Path_786" data-name="Path 786" d="M794.775,315.524a3.116,3.116,0,0,1-1.178.626l-2.008.719a7.482,7.482,0,0,1-3.379.643c-.643-.079-3.4-.484-3.815-.986-.634-.776,1.589-1.917,2.348-2.572a3.211,3.211,0,0,0,.476-.419,1.707,1.707,0,0,0,.207-1.266,19.549,19.549,0,0,1-.147-3.333,6.722,6.722,0,0,1,.113-.79c.283-1.3,1.5-.827,2.453-.481a19.175,19.175,0,0,1,3.328,1.442,2.388,2.388,0,0,1,.821.7,3.542,3.542,0,0,1,.184,2.266,2.122,2.122,0,0,0,.331,1.665,4.3,4.3,0,0,1,.535.566A1.062,1.062,0,0,1,794.775,315.524Z" transform="translate(-570.11 -255.304)" fill="#be6f72"/>
    <path id="Path_787" data-name="Path 787" d="M716.314,238.415c.283-1.255.346-2.549.685-3.792a17.755,17.755,0,0,1,.889-2.365l1.249-2.914a2.055,2.055,0,0,1,.589-.892,1.745,1.745,0,0,1,.971-.261,4.328,4.328,0,0,1,3.336,1.232,2.86,2.86,0,0,1,.433,3.379c-.793,1.238-2.523,1.487-3.557,2.529a4.952,4.952,0,0,0-1.175,2.506,49.379,49.379,0,0,0-.5,7.276,2.412,2.412,0,0,1-.85,2.011,2.478,2.478,0,0,1-1.269.246l-1.858.031c-.312,0-1.442.2-1.648-.04-.363-.411.464-2.455.615-2.911.334-1.011.745-2,1.133-2.991A9.945,9.945,0,0,0,716.314,238.415Z" transform="translate(-519.386 -198.606)" fill="#be6f72"/>
    <path id="Path_788" data-name="Path 788" d="M834.794,572c-.428,1.637-1.713,2.911-2.373,4.472-.994,2.337-.547,5.194-1.951,7.307a7.717,7.717,0,0,1-1.634,1.685,6.072,6.072,0,0,1-1.133.762,1.864,1.864,0,0,1-1.376.17,1.7,1.7,0,0,1-1.017-1.473,2.972,2.972,0,0,1,0-.615,7.621,7.621,0,0,1,.283-1.243q.51-1.719,1.017-3.444a8.343,8.343,0,0,0,.408-1.926c.037-.714-.416-1.643-.224-2.308.088-.3.416-.566.566-.819a4.738,4.738,0,0,0,.487-1.158,7.2,7.2,0,0,1,.878-2.3,5.4,5.4,0,0,1,1.1-1.034,2.928,2.928,0,0,1,1.054-.592,2.581,2.581,0,0,1,1.133.054,11.119,11.119,0,0,1,1.416.4h.025a1.982,1.982,0,0,1,1.345,1.09A1.78,1.78,0,0,1,834.794,572Z" transform="translate(-599.505 -443.214)" fill="#3f3d56"/>
    <path id="Path_789" data-name="Path 789" d="M926.956,442.849a1.57,1.57,0,0,1-.411,1.2,1.546,1.546,0,0,1-1,.235h-.077a9.544,9.544,0,0,0-3,.258,11.331,11.331,0,0,1-2.155.77,5.258,5.258,0,0,1-2.954-.952,29.41,29.41,0,0,0-2.682-1.274c-.6-.246-1.827-.4-2.116-1.062a9.7,9.7,0,0,1-.249-.946,3.139,3.139,0,0,0-.173-.416,2.393,2.393,0,0,1-.317-.937,1.448,1.448,0,0,1,.323-.906,2.717,2.717,0,0,1,1.855-.954,8.213,8.213,0,0,1,2.135.113l6.973,1c.538.076,1.079.153,1.609.283a3.155,3.155,0,0,1,1.382.606A3.58,3.58,0,0,1,926.956,442.849Z" transform="translate(-661.534 -348.885)" fill="#3f3d56"/>
    <path id="Path_790" data-name="Path 790" d="M802.3,450.837c-.85,1.793-.238,3.914-.391,5.9a15.035,15.035,0,0,1-.753,3.268c-.329,1.054-.657,2.11-1.076,3.132-.351.85-.768,1.7-1.093,2.566-.518,1.382-.85,2.937-1.9,3.965-.481,2.317-1.093,4.849-3,6.253a6.277,6.277,0,0,1-5.9.527,13.2,13.2,0,0,1-4.891-3.682c-1.385-1.526-2.623-3.189-4.109-4.611a25.765,25.765,0,0,0-2.71-2.218q-1.439-1.045-2.96-1.965a5.928,5.928,0,0,0-2.05-.892,2.379,2.379,0,0,0-1.742.34,1.577,1.577,0,0,0-.314.283,3.9,3.9,0,0,0-.566,1.161c-1.189,3.1-4.381,4.69-6.93,6.8l-2.328,1.929c-.317.263-.668.649-.513,1.031a.927.927,0,0,0,.487.419c1.354.668,2.943.937,4.058,1.957.408.374.8.867,1.351.895a2.713,2.713,0,0,0,.85-.19,2.857,2.857,0,0,1,2.495.5,2.428,2.428,0,0,0,.68.467,1.652,1.652,0,0,0,.646.04,3.447,3.447,0,0,1,1.784.173c.541.269.986.9,1.617.949.309.023.677-.079.971-.051a.51.51,0,0,1,.408.227,1.878,1.878,0,0,1,.133.487c.116.4.507.643.762.971a2.683,2.683,0,0,1,.408,1.827,7.794,7.794,0,0,1-2.481,5.217,3.07,3.07,0,0,1-1.527.85,1.416,1.416,0,0,1-1.512-.671,2.328,2.328,0,0,0-.283-.623c-.456-.5-1.478.031-1.9-.5-.261-.334-.074-.869-.323-1.215s-.85-.283-1.311-.3a8.31,8.31,0,0,1-1.566-.416,14.067,14.067,0,0,0-2.608-.2,15.745,15.745,0,0,1-2.147-.34l-3.6-.736a42.7,42.7,0,0,1-6.78-1.776,5.456,5.456,0,0,1-2.266-1.388,4.248,4.248,0,0,1-.884-2.067c-.513-3.022,2.206-5.6,2.549-8.649a12.132,12.132,0,0,1,.986-3.189q1.153-2.764,2.3-5.531a4.93,4.93,0,0,1,.481-.98,7.106,7.106,0,0,1,1.1-1.068,7.542,7.542,0,0,0,2.217-3.636.981.981,0,0,1,.19-.428,1.6,1.6,0,0,1,.328-.212,1.076,1.076,0,0,0,.428-1.26.736.736,0,0,0,.674-.685,1.183,1.183,0,0,1,.028-.459c.068-.147.238-.221.337-.351a1.1,1.1,0,0,0,.079-.776,2.531,2.531,0,0,1,0-.507,2.6,2.6,0,0,1,.759-1.583c.677-.666,1.64-.493,2.574-.651a14.74,14.74,0,0,0,2.719-.869,26.711,26.711,0,0,1,7.678-1.776,16.764,16.764,0,0,1,7.754,1.235,4.407,4.407,0,0,1,1,.566,1.893,1.893,0,0,1,.524.626,5.833,5.833,0,0,0,.385.869c.3.413.875.547,1.206.937s.36,1.051.634,1.535c.394.691,1.306,1.011,1.578,1.762.085.238.1.5.159.745a4.26,4.26,0,0,0,1.017,1.592,12.238,12.238,0,0,1,2.741,6.231,4.739,4.739,0,0,1,2.266-3.5c.326-.212.7-.447.768-.833.082-.487-.391-.92-.36-1.416a1.388,1.388,0,0,1,.283-.663,20.952,20.952,0,0,1,1.773-2.229c.348-.382.739-.85.595-1.354-.11-.377-.5-.6-.708-.926a1.178,1.178,0,0,1,.028-1.3c.2-.269.513-.464.609-.784.11-.377-.136-.785-.06-1.172a1.45,1.45,0,0,1,.583-.756,3.568,3.568,0,0,1,3.639-.9c1.325.184,2.812.467,3.56,1.578A2.687,2.687,0,0,1,802.3,450.837Z" transform="translate(-543.008 -355.06)" fill="#65617d"/>
    <path id="Path_791" data-name="Path 791" d="M926.935,442.849a1.569,1.569,0,0,1-.411,1.2,1.546,1.546,0,0,1-1,.235h-.076c.116-.589.833-.926.957-1.524a1.348,1.348,0,0,0-.312-1.028,5.105,5.105,0,0,0-2.549-1.6,16.886,16.886,0,0,0-8.513-.637,8.574,8.574,0,0,0-2.237.688,7.293,7.293,0,0,0-.68.481,2.391,2.391,0,0,1-.317-.937,1.447,1.447,0,0,1,.323-.906,2.716,2.716,0,0,1,1.855-.954,8.213,8.213,0,0,1,2.135.113l6.973,1c.538.076,1.079.153,1.609.283a3.155,3.155,0,0,1,1.382.606A3.556,3.556,0,0,1,926.935,442.849Z" transform="translate(-661.512 -348.885)" opacity="0.1"/>
    <path id="Path_792" data-name="Path 792" d="M834.794,573.27c-.428,1.637-1.713,2.911-2.373,4.472-.994,2.337-.547,5.194-1.951,7.307a7.715,7.715,0,0,1-1.634,1.685,6.067,6.067,0,0,1-1.133.762,1.863,1.863,0,0,1-1.376.17,1.7,1.7,0,0,1-1.017-1.473,2.971,2.971,0,0,1,0-.615l.017.045c.246.595.649,1.218,1.283,1.323a1.736,1.736,0,0,0,1.308-.462,8.089,8.089,0,0,0,2-2.948,12.258,12.258,0,0,0,.957-2.444c.113-.482.167-.974.283-1.456.538-2.339,2.37-4.248,2.775-6.619a1.62,1.62,0,0,0,.023-.5,2.5,2.5,0,0,0-.244-.617,3.064,3.064,0,0,1-.215-.685,1.983,1.983,0,0,1,1.345,1.09A1.781,1.781,0,0,1,834.794,573.27Z" transform="translate(-599.505 -444.488)" opacity="0.1"/>
    <path id="Path_793" data-name="Path 793" d="M798.565,522.224a4.1,4.1,0,0,1-1.277,1.745,6.229,6.229,0,0,1-2.75,1.189,2.735,2.735,0,0,1-1.416-.017c-.629-.218-1.082-.807-1.725-.977a11.779,11.779,0,0,0-1.416-.082,5.026,5.026,0,0,1-2.158-1.263c-2.065-1.552-4.775-2.053-6.84-3.605a.634.634,0,0,1-.221-.229.683.683,0,0,1-.043-.32,6.513,6.513,0,0,1,.62-2.722,9.5,9.5,0,0,1,1.167-1.662,50.433,50.433,0,0,1,5.922-6.46,8.974,8.974,0,0,1,3.115-1.912,4.669,4.669,0,0,1,2.73-.051,1.576,1.576,0,0,0-.314.283,3.9,3.9,0,0,0-.566,1.161c-1.192,3.1-4.384,4.693-6.933,6.806l-2.328,1.929c-.317.263-.668.649-.513,1.031a.925.925,0,0,0,.487.419c1.354.668,2.942.937,4.058,1.957.408.374.8.867,1.351.895a2.712,2.712,0,0,0,.85-.19,2.857,2.857,0,0,1,2.5.5,2.427,2.427,0,0,0,.68.467,1.653,1.653,0,0,0,.646.04,3.447,3.447,0,0,1,1.784.173c.541.269.986.9,1.617.949C797.9,522.3,798.271,522.19,798.565,522.224Z" transform="translate(-567.553 -397.503)" opacity="0.1"/>
    <path id="Path_794" data-name="Path 794" d="M745.143,402.187a3.007,3.007,0,0,0-1.331,1.337c-.181.49-.1,1.051-.314,1.526s-.708.807-.816,1.317c-.076.371.074.762,0,1.133a4.893,4.893,0,0,0-.156.589c-.028.422.334.765.688,1a5.75,5.75,0,0,0,5.146.566,23.257,23.257,0,0,0,2.164-1.107,4.28,4.28,0,0,1,2.331-.566c.467.051.915.221,1.382.283a1.45,1.45,0,0,0,1.294-.385,1.614,1.614,0,0,0,.283-.671,10.032,10.032,0,0,0-.159-4.766c-.374-1.563-.94-3.067-1.34-4.622a21.21,21.21,0,0,0-.974-3.424,4.493,4.493,0,0,0-2.382-2.521.444.444,0,0,0-.283-.037.481.481,0,0,0-.184.136,8.708,8.708,0,0,0-1.943,3.268c-.445,1.357-.566,2.8-.974,4.158a4.258,4.258,0,0,1-.85,1.759A9.7,9.7,0,0,1,745.143,402.187Z" transform="translate(-540.178 -315.903)" fill="#3f3d56"/>
    <path id="Path_795" data-name="Path 795" d="M755.837,407.148a1.652,1.652,0,0,1-.3.671,1.436,1.436,0,0,1-1.294.382c-.464-.057-.912-.229-1.379-.283a4.271,4.271,0,0,0-2.331.566c-.725.363-1.416.813-2.167,1.1a5.718,5.718,0,0,1-3.435.2,5.542,5.542,0,0,1-1.7-.748,1.218,1.218,0,0,1-.688-1,4.85,4.85,0,0,1,.156-.586c.074-.371-.074-.762,0-1.133.108-.51.6-.85.816-1.32s.133-1.034.311-1.524a3.02,3.02,0,0,1,1.334-1.34,10.17,10.17,0,0,0,1.609-1.036,1.592,1.592,0,0,0,.15-.21,5.1,5.1,0,0,0,.674-1.56c.416-1.365.53-2.8.971-4.16a8.726,8.726,0,0,1,1.946-3.265.428.428,0,0,1,.181-.136.453.453,0,0,1,.283.034,4.525,4.525,0,0,1,2.382,2.523,22.3,22.3,0,0,1,.974,3.421c.4,1.555.966,3.064,1.34,4.625A10.076,10.076,0,0,1,755.837,407.148Z" transform="translate(-540.192 -315.852)" opacity="0.1"/>
    <path id="Path_796" data-name="Path 796" d="M801.759,312.082a5.664,5.664,0,0,1-6.9-3.115,6.72,6.72,0,0,1,.113-.79c.283-1.3,1.5-.827,2.453-.481a19.178,19.178,0,0,1,3.328,1.442,2.387,2.387,0,0,1,.821.7A3.489,3.489,0,0,1,801.759,312.082Z" transform="translate(-577.691 -255.326)" opacity="0.1"/>
    <circle id="Ellipse_57" data-name="Ellipse 57" cx="5.664" cy="5.664" r="5.664" transform="translate(216.693 45.41)" fill="#be6f72"/>
    <path id="Path_797" data-name="Path 797" d="M810.5,448.482c0,.47-.637.62-1.11.595a35.865,35.865,0,0,0-5.044-.425c-2.127.193-4.081,1.368-6.214,1.476a18.832,18.832,0,0,0-2.467.071c-1.048.2-1.982.833-3.05.923-.926.079-1.841-.269-2.767-.232a4.447,4.447,0,0,0-1.849.527,2.6,2.6,0,0,1,.759-1.583c.677-.666,1.64-.493,2.574-.651a14.741,14.741,0,0,0,2.719-.869,26.711,26.711,0,0,1,7.678-1.776,16.764,16.764,0,0,1,7.751,1.226,4.41,4.41,0,0,1,1,.566A.448.448,0,0,1,810.5,448.482Z" transform="translate(-572.774 -355.079)" opacity="0.1"/>
    <path id="Path_798" data-name="Path 798" d="M780.62,333.735l-2.294-.85-.969-.357a4.686,4.686,0,0,0-1.235-.329,3.144,3.144,0,0,0-2.747,1.6,8.631,8.631,0,0,0-1.005,3.163q-.391,2.249-.663,4.514a29.484,29.484,0,0,0-.3,4.118,48.79,48.79,0,0,0,1.623,10.377,36.489,36.489,0,0,1,.9,4.6c.068.64.1,1.283.167,1.926.074.722.193,1.436.312,2.152l.683,4.07a5.38,5.38,0,0,1,2.86-1.164c.926-.034,1.844.312,2.767.232a31.606,31.606,0,0,0,3.05-.92,18.394,18.394,0,0,1,2.47-.071c2.13-.108,4.087-1.286,6.211-1.476a34.126,34.126,0,0,1,5.047.422c.47.028,1.107-.122,1.107-.595,0-.329-.329-.547-.615-.711a30.3,30.3,0,0,1-3.838-2.739,12.956,12.956,0,0,1-3.016-2.985c-1.849-2.875-1.215-6.763-2.792-9.8-1.283-2.464,0-5.693,0-8.471a12.886,12.886,0,0,0-1.085-6.341l-1.1-2.79a.456.456,0,0,0-.13-.212.434.434,0,0,0-.252-.076,2.657,2.657,0,0,0-1.83.586c-.518.422-.85,1.028-1.359,1.467A2.069,2.069,0,0,1,780.62,333.735Z" transform="translate(-560.882 -272.318)" fill="#e3e8f4"/>
    <path id="Path_799" data-name="Path 799" d="M809.832,327.626a5.025,5.025,0,0,1,.895-2.189,1.721,1.721,0,0,1,2.133-.493c.759.493.79,1.631,1.439,2.266a3.491,3.491,0,0,0,2.186.657,14.828,14.828,0,0,1,4.041.952,1.652,1.652,0,0,1,.671.4c.354.4.283,1.02.459,1.521.241.646.906,1.056,1.164,1.7a3.389,3.389,0,0,1-.238,2.246c-.428,1.317-.7,2.685-1.113,4.007a8.922,8.922,0,0,1-1.982,3.622c-.431.442-1.071.85-1.637.586l-.218,1.572a2.67,2.67,0,0,0,0,1.005.9.9,0,0,0,.657.7c.042.244.3.36.51.493a1.416,1.416,0,0,1,.36,1.982c-.179.241-.442.43-.527.717a1.018,1.018,0,0,0,.544,1.076c.368.227.8.331,1.175.549a3.655,3.655,0,0,1,1.459,2.184,4.046,4.046,0,0,0,.85,1.815c.187.178.411.314.589.5a2.149,2.149,0,0,1,.507,1.3,2.58,2.58,0,0,1-.368,1.7,5.132,5.132,0,0,1-2.549,1.416,21.479,21.479,0,0,0-4.067,2.662,4.339,4.339,0,0,1-1.855.872,16.249,16.249,0,0,1-2.744-.32,6.813,6.813,0,0,0-1.637.215l-1.7.368c.091-1.317-.634-2.637-1.039-3.891a19.339,19.339,0,0,1-.725-7.363,57.7,57.7,0,0,1,1.184-7.347,46.849,46.849,0,0,1,.85-5.126,33.769,33.769,0,0,0,1.481-4.769C811.016,332.534,809.226,330.266,809.832,327.626Z" transform="translate(-586.393 -267.817)" fill="#3f3d56"/>
    <path id="Path_800" data-name="Path 800" d="M851.588,352.392a3.118,3.118,0,0,1,.326.92,3.322,3.322,0,0,0,.717,1.348,4.641,4.641,0,0,1,.753.85,6.355,6.355,0,0,1,.283,1.631,13.108,13.108,0,0,1,.612,1.7,3.093,3.093,0,0,0,.048.515c.184.685,1.192.85,1.416,1.535.15.445-.108.929-.06,1.4a1.232,1.232,0,0,1,.026.442.9.9,0,0,1-.323.413,6.514,6.514,0,0,0-1.864,3.316,18.884,18.884,0,0,0-.428,3.832l-1.107-1.464a1.682,1.682,0,0,0-.442-.453c-.141-.085-.306-.127-.45-.212a2.048,2.048,0,0,1-.745-1.2,11.049,11.049,0,0,0-1.982-3.433,3.745,3.745,0,0,1-1.073-1.75,3.224,3.224,0,0,1,.051-.946,16.129,16.129,0,0,1,1.49-5.4c.422-.77.969-1.467,1.374-2.249C850.48,352.67,850.863,351.322,851.588,352.392Z" transform="translate(-615.265 -287.347)" fill="#3f3d56"/>
    <path id="Path_801" data-name="Path 801" d="M723.631,309.324a1.3,1.3,0,0,1-.176.68.9.9,0,0,1-.895.283,2.588,2.588,0,0,1-.895-.419l-2.368-1.5a13.1,13.1,0,0,1-1.272-.872,11.351,11.351,0,0,1-1.68-1.759c-1.376-1.7-2.594-3.543-4.126-5.1-.416-.425-.85-.833-1.252-1.277a18.63,18.63,0,0,1-1.512-2.034,3.464,3.464,0,0,1-.824-2.161c.045-.442.258-.85.32-1.289a.8.8,0,0,0-.682-1.119,1.161,1.161,0,0,1-.246-.054c-.394-.164-.334-.773-.051-1.093s.7-.5.96-.85a5.117,5.117,0,0,1,.4-.6,1.532,1.532,0,0,1,.66-.331,10.213,10.213,0,0,1,5.027-.19c.283.062.606.176.691.45a.829.829,0,0,1,0,.408,9.119,9.119,0,0,0-.215,1.7,3.018,3.018,0,0,0,.02.357,6.407,6.407,0,0,0,1.671,3.155c.9,1.116,1.815,2.223,2.733,3.328a13.074,13.074,0,0,0,1.657,1.77,9.451,9.451,0,0,1,1.742,1.453A3.18,3.18,0,0,1,723.6,304,38.6,38.6,0,0,1,723.631,309.324Z" transform="translate(-515.247 -242.497)" fill="#3f3d56"/>
    <path id="Path_802" data-name="Path 802" d="M878.906,348.639a5.947,5.947,0,0,0,.753-.892,5.882,5.882,0,0,0,.566-1.266l1.643-4.659c.261-.736.521-1.475.85-2.192.34-.773.742-1.518,1.113-2.266a30.216,30.216,0,0,0,2.2-6.16,2.283,2.283,0,0,0,.088-.9,2.375,2.375,0,0,0-.8-1.221,5.885,5.885,0,0,0-1.206-1,1.983,1.983,0,0,0-1.512-.244,2.185,2.185,0,0,0-1.348,1.7,17.753,17.753,0,0,0-.176,2.266c-.1,1.088-.476,2.138-.566,3.229-.048.632,0,1.269-.077,1.9a6.929,6.929,0,0,1-.85,2.342,15.206,15.206,0,0,1-3.662,4.5,5.891,5.891,0,0,0-1.1,1.056,3.446,3.446,0,0,0-.53,1.32,3.039,3.039,0,0,0,.229,2.144,3.147,3.147,0,0,0,2.195,1.308C877.858,349.842,878.121,349.452,878.906,348.639Z" transform="translate(-634.554 -269.996)" fill="#be6f72"/>
    <path id="Path_803" data-name="Path 803" d="M795.594,269.954a2.642,2.642,0,0,1,2.566-1.391,2.832,2.832,0,0,1,2.226,2,5.168,5.168,0,0,0,.419,1.252c.351.547,1,.705,1.49,1.1a2.982,2.982,0,0,1,.952,2.107,6.374,6.374,0,0,1-.377,2.382,7.572,7.572,0,0,0-.283,1c-.057.329-.062.663-.113.991a3.228,3.228,0,0,1-1.3,2.144.566.566,0,0,1-.351.127c-.221-.025-.357-.283-.439-.515-.45-1.3-.343-2.889-1.173-3.925a4.29,4.29,0,0,0-1.342-1,1.73,1.73,0,0,0-.685-.258,1.8,1.8,0,0,0-.991.362,6.172,6.172,0,0,1-1.96.867,2.407,2.407,0,0,1-2.025-.436c-.391-.323-.677-.807-1.11-1.059a8.56,8.56,0,0,0-1.314-.411,1.946,1.946,0,0,1-.787-2.968c.283-.34.7-.533.954-.909a5.735,5.735,0,0,0,.453-1.739,2.393,2.393,0,0,1,1.442-1.645,2.025,2.025,0,0,1,2.016.422c.283.255.51.583.787.85a2.266,2.266,0,0,0,2.1.566" transform="translate(-573.203 -227.086)" fill="#3f3d56"/>
    <path id="Path_804" data-name="Path 804" d="M828.808,419.714a1.1,1.1,0,0,0-.3,1.2,26.52,26.52,0,0,0,3.294-.473c.77-.11,2.121-.057,2.64-.762.923-1.249-1.937-.971-2.461-.926A5.4,5.4,0,0,0,828.808,419.714Z" transform="translate(-601.761 -335.161)" opacity="0.1"/>
    <path id="Path_805" data-name="Path 805" d="M715.757,290.516a9.124,9.124,0,0,0-.215,1.7,4.949,4.949,0,0,1-2.549-.394l-2.342-.8a.666.666,0,0,0-.9.167,19.822,19.822,0,0,1-1.416,1.572,1.156,1.156,0,0,1-.246-.054c-.394-.164-.334-.773-.051-1.093s.7-.5.96-.85a5.115,5.115,0,0,1,.4-.6,1.533,1.533,0,0,1,.66-.331,10.213,10.213,0,0,1,5.027-.19c.283.062.606.176.691.45A.83.83,0,0,1,715.757,290.516Z" transform="translate(-515.297 -242.497)" fill="#3f3d56"/>
    <path id="Path_806" data-name="Path 806" d="M715.757,290.516a9.124,9.124,0,0,0-.215,1.7,4.949,4.949,0,0,1-2.549-.394l-2.342-.8a.666.666,0,0,0-.9.167,19.822,19.822,0,0,1-1.416,1.572,1.156,1.156,0,0,1-.246-.054c-.394-.164-.334-.773-.051-1.093s.7-.5.96-.85a5.115,5.115,0,0,1,.4-.6,1.533,1.533,0,0,1,.66-.331,10.213,10.213,0,0,1,5.027-.19c.283.062.606.176.691.45A.83.83,0,0,1,715.757,290.516Z" transform="translate(-515.297 -242.497)" opacity="0.1"/>
    <path id="Path_807" data-name="Path 807" d="M797.3,480.333a1.414,1.414,0,0,1,.988.742l-3.28-.833-1.7-.433c-.3-.076-1.376-.164-1.575-.4-.283-.346.722-.108.9-.082.549.082,1.1.167,1.645.266C795.313,479.778,796.3,480.081,797.3,480.333Z" transform="translate(-575.414 -378.547)" opacity="0.1"/>
    <path id="Path_808" data-name="Path 808" d="M798.673,487.609a6.132,6.132,0,0,0-1.444-.249c-.51-.122-1.011-.283-1.512-.439-1.017-.331-2.025-.708-3.07-.952-.193-.042-.85-.054-.819-.3s.657-.329.813-.34a8.029,8.029,0,0,1,2.943.674A12.973,12.973,0,0,1,798.673,487.609Z" transform="translate(-575.516 -382.92)" opacity="0.1"/>
    <path id="Path_809" data-name="Path 809" d="M798.324,469.577a21.757,21.757,0,0,0-3.053-1.054,1.24,1.24,0,0,1-.779-.238.917.917,0,0,1-.252-.453,5.276,5.276,0,0,1,2.2.552,6.919,6.919,0,0,1,1.031.549C797.709,469.078,798.066,469.495,798.324,469.577Z" transform="translate(-577.247 -370.379)" opacity="0.1"/>
    <path id="Path_810" data-name="Path 810" d="M869.735,384.46a4.953,4.953,0,0,0,3.472,5.474c-.139.671-.833,1.042-1.323,1.521-.691.671-1.048,1.677-1.864,2.186a4.157,4.157,0,0,1-3.115.108.379.379,0,0,1-.244-.127.349.349,0,0,1-.045-.11,7.289,7.289,0,0,1-.215-3.852,12.578,12.578,0,0,1,1.507-2.928C868.452,385.785,868.5,384.772,869.735,384.46Z" transform="translate(-628.845 -310.621)" fill="#3f3d56"/>
    <path id="Path_811" data-name="Path 811" d="M755.8,327.1a7.363,7.363,0,0,0-3.115.949,3.483,3.483,0,0,1-2.011.762c-.428-.048-.85-.283-1.266-.17a2.482,2.482,0,0,0-.648.385.734.734,0,0,1-.714.113l-.283,3.92a14.37,14.37,0,0,0,.144,4.463,12.51,12.51,0,0,1,.634,2.169c.045.753-.023,1.527.031,2.288.051.705.207,1.4.246,2.1a13.388,13.388,0,0,1-.566,3.945,23.471,23.471,0,0,1-1.7,5.588,3.3,3.3,0,0,0-.566,1.51.77.77,0,0,0,.017.2c-.283.156-.547.3-.787.456a3.019,3.019,0,0,0-1.334,1.34c-.178.49-.1,1.051-.311,1.524s-.708.81-.816,1.32c-.076.371.071.762,0,1.133a4.848,4.848,0,0,0-.156.586,1.23,1.23,0,0,0,.688,1,5.542,5.542,0,0,0,1.7.748l1.691-6.712h0a54.12,54.12,0,0,0,3.832-8.913,19.16,19.16,0,0,1,1.107-2.934,13.785,13.785,0,0,0,.85-1.665,12.544,12.544,0,0,0,.408-2.24,15.68,15.68,0,0,1,.666-2.586,11.1,11.1,0,0,0,.722-2.77c.093-1.365-.4-2.807.125-4.07a5.411,5.411,0,0,1,.864-1.3c.731-.895,1.4-1.832,2.127-2.727A1.965,1.965,0,0,0,755.8,327.1Z" transform="translate(-540.228 -269.497)" fill="#3f3d56"/>
    <g id="Group_2238" data-name="Group 2238" transform="translate(215.405 41.935)" opacity="0.1">
      <path id="Path_812" data-name="Path 812" d="M816.394,271.81l-.354.025-.04.028A2.085,2.085,0,0,0,816.394,271.81Z" transform="translate(-808.249 -271.81)"/>
      <path id="Path_813" data-name="Path 813" d="M803.256,287.932a7.618,7.618,0,0,1-.362,1.654,7.581,7.581,0,0,0-.283,1c-.057.329-.062.663-.113.991a3.229,3.229,0,0,1-1.3,2.144.566.566,0,0,1-.351.127c-.221-.026-.357-.283-.439-.515-.45-1.3-.343-2.889-1.172-3.925a4.289,4.289,0,0,0-1.342-1,1.73,1.73,0,0,0-.685-.258,1.8,1.8,0,0,0-.991.363,6.17,6.17,0,0,1-1.96.867,2.407,2.407,0,0,1-2.025-.436c-.391-.323-.677-.807-1.11-1.059a8.551,8.551,0,0,0-1.314-.411,1.934,1.934,0,0,1-1.1-1.263.784.784,0,0,1-.023-.108,1.981,1.981,0,0,0,.023.957,1.934,1.934,0,0,0,1.1,1.263,9.555,9.555,0,0,1,1.314.411,10.726,10.726,0,0,1,1.11,1.059,2.407,2.407,0,0,0,2.025.436,6.171,6.171,0,0,0,1.96-.867,1.8,1.8,0,0,1,.991-.362,1.73,1.73,0,0,1,.685.258,4.292,4.292,0,0,1,1.323,1.008c.83,1.037.722,2.625,1.172,3.925.082.235.218.49.439.515a.567.567,0,0,0,.371-.136,3.229,3.229,0,0,0,1.3-2.152c.051-.329.057-.663.113-.991a7.583,7.583,0,0,1,.283-1,6.373,6.373,0,0,0,.377-2.382C803.267,288.012,803.261,287.972,803.256,287.932Z" transform="translate(-788.631 -282.053)"/>
    </g>
    <path id="Path_814" data-name="Path 814" d="M677.739,372.81l-.193,2.586a53.771,53.771,0,0,1-5.65,18.482,52.449,52.449,0,0,1-28.123,25.43q-1.827.722-3.792,1.348l-1.461-4.588a53.649,53.649,0,0,0,10.541-4.611,46.653,46.653,0,0,0,18.454-19.587,52.617,52.617,0,0,0,4.843-14.246H654.6V372.81Z" transform="translate(-465.628 -302.27)" fill="#3f51b5"/>
    <path id="Path_815" data-name="Path 815" d="M645.245,419.325a52.437,52.437,0,0,0,28.12-25.427,53.665,53.665,0,0,0,5.65-18.482l.193-2.586h1.982L681,375.416a53.7,53.7,0,0,1-5.65,18.482,52.448,52.448,0,0,1-28.12,25.427q-1.827.722-3.8,1.351l-.193-.6Q644.265,419.707,645.245,419.325Z" transform="translate(-469.012 -302.285)" fill="#fff" opacity="0.1"/>
    <path id="Path_816" data-name="Path 816" d="M440.739,416.068l-1.461,4.588q-1.968-.629-3.8-1.351a52.438,52.438,0,0,1-28.12-25.427,53.662,53.662,0,0,1-5.65-18.482l-.193-2.586h23.127v4.815h-17.76a52.645,52.645,0,0,0,4.857,14.246A46.624,46.624,0,0,0,430.2,411.454a53.527,53.527,0,0,0,10.544,4.613Z" transform="translate(-295.749 -302.27)" fill="#3f51b5"/>
    <path id="Path_817" data-name="Path 817" d="M437.205,419.325a52.437,52.437,0,0,1-28.12-25.427,53.663,53.663,0,0,1-5.65-18.482l-.193-2.586H401.26l.193,2.586A53.7,53.7,0,0,0,407.1,393.9a52.448,52.448,0,0,0,28.12,25.427q1.827.722,3.8,1.351l.193-.6Q438.188,419.707,437.205,419.325Z" transform="translate(-295.563 -302.285)" fill="#fff" opacity="0.1"/>
    <path id="Path_818" data-name="Path 818" d="M548.354,597.569v25.962H494.92V597.569l1.7-2.266c17.316-6.146,20.825-22.173,21.524-28.514a26.03,26.03,0,0,0,.178-2.64h6.607a26.064,26.064,0,0,0,.179,2.64c.711,6.341,4.22,22.374,21.524,28.514Z" transform="translate(-362.697 -439.421)" fill="#3f51b5"/>
    <rect id="Rectangle_500" data-name="Rectangle 500" width="53.434" height="3.257" transform="translate(132.223 158.148)" opacity="0.1"/>
    <path id="Path_819" data-name="Path 819" d="M499.451,595.3c17.316-6.146,20.824-22.173,21.524-28.514a26.1,26.1,0,0,0,.178-2.64h-2.832a26.1,26.1,0,0,1-.178,2.64c-.711,6.341-4.22,22.374-21.524,28.514l-1.7,2.266v25.962h2.832V597.569Z" transform="translate(-362.697 -439.421)" fill="#fff" opacity="0.1"/>
    <path id="Path_820" data-name="Path 820" d="M466.26,372.81h4.792v4.815h-4.367Q466.427,375.246,466.26,372.81Z" transform="translate(-342.154 -302.27)" opacity="0.1"/>
    <path id="Path_821" data-name="Path 821" d="M513.314,513.874l-1.461,4.588q-1.968-.629-3.8-1.351a50.736,50.736,0,0,1-5.288-7.851A53.526,53.526,0,0,0,513.314,513.874Z" transform="translate(-368.324 -400.076)" opacity="0.1"/>
    <path id="Path_822" data-name="Path 822" d="M638.51,513.881a53.651,53.651,0,0,0,10.541-4.611,50.936,50.936,0,0,1-5.288,7.853q-1.827.722-3.792,1.348Z" transform="translate(-465.621 -400.083)" opacity="0.1"/>
    <path id="Path_823" data-name="Path 823" d="M700.119,372.81q-.167,2.436-.425,4.815H695.33V372.81Z" transform="translate(-506.349 -302.27)" opacity="0.1"/>
    <path id="Path_824" data-name="Path 824" d="M583.924,566.79a18.309,18.309,0,0,1-6.964,0,26.067,26.067,0,0,0,.178-2.64h6.607a26.068,26.068,0,0,0,.179,2.64Z" transform="translate(-421.503 -439.421)" opacity="0.1"/>
    <path id="Path_825" data-name="Path 825" d="M468.26,344.65c.122,35.7,15.415,64.572,34.269,64.572s34.144-28.871,34.269-64.572Z" transform="translate(-343.588 -282.085)" fill="#3f51b5"/>
    <path id="Path_826" data-name="Path 826" d="M474.349,344.65H468.26c.122,35.7,15.415,64.572,34.269,64.572a18.508,18.508,0,0,0,3.044-.258C488.144,406.053,474.465,378.409,474.349,344.65Z" transform="translate(-343.588 -282.085)" fill="#fff" opacity="0.1"/>
    <rect id="Rectangle_501" data-name="Rectangle 501" width="36.345" height="9.346" transform="translate(140.767 168.086)" fill="#3f3d56"/>
    <path id="Path_827" data-name="Path 827" d="M498.789,594.774h34.645V593.5H497.09v9.346h1.7Z" transform="translate(-356.323 -425.414)" fill="#fff" opacity="0.1"/>
    <path id="Path_828" data-name="Path 828" d="M241.24,348.17c-.654-.218-4.506-3.265-4.8-4.645s2.036-14.229,2.036-14.229a5.228,5.228,0,0,1-.566-.043v-.207l.479-16.879s1.963-11.328-1.745-10.669-1.382,10.669-1.382,10.669-.422,5.081-.719,6.6c-.283,1.47-1.58,7.457-.7,9.318a2.027,2.027,0,0,0,.108.193h0s.147,6.386-1.453,7.259c-1.527.83-2.161,5.007-2.215,5.381l-.082-.034h0a4.437,4.437,0,0,1-1.181-1.079c-.034-.042-.059-.088-.091-.133a6.237,6.237,0,0,0-1.92-9.74,4.022,4.022,0,0,0-.377-1.563c-.736-1.575-4.815-3.634-7.712-3.682-1.337-.04-2.433.34-2.832,1.385a7.99,7.99,0,0,0-.227,1.682,4.278,4.278,0,0,1-1.832,2.724,11.491,11.491,0,0,0-1.221-1.175,26.67,26.67,0,0,1-2.832-3.115s-5.888-6.1-6.324-7.768-6.318-11.705-7.627-9.958,4.506,9.363,4.506,9.363a17.713,17.713,0,0,0,1.954,3.7c.85.935,7.363,10.394,7.363,10.394l.312.646a5.659,5.659,0,0,0-3.079,3.087c-.651,2.118.773,4.248,1.759,6.231,1.92,3.869,2.195,8.8-.283,12.337-2.22,3.121-6.072,4.605-9.677,5.9A9.524,9.524,0,0,0,205,362.158c-.833,2.413-3.784,3.212-6.3,3.659a9.065,9.065,0,0,0,5.021,2.011,15.046,15.046,0,0,0,2.688.212h.221l.221-.017a7.691,7.691,0,0,0,.915-.116,4.806,4.806,0,0,0,3.248-2.135c.566-.988.765-2.336,1.793-2.832a2.291,2.291,0,0,1,.85-.2h.552l4.285.042h.547c1.209-.028,2.5-.238,3.115-1.238a3.432,3.432,0,0,0,.388-1.572c.091-1.357,0-2.753.037-4.121.365,2.489.748,6.369-.161,7.8a13.311,13.311,0,0,1-2.657,2.88,5.1,5.1,0,0,0-.7.719c-.139.1-.221.153-.221.153l-.088.263a4.986,4.986,0,0,0-.691,1.6,1.113,1.113,0,0,0-.054.456c.1.2-.708,1.031-.473,1.379a12.491,12.491,0,0,0-2.4,5.947l-3.682,5.591c-1.892,4.97-4.724,5.48-4.724,5.48s-6.653-4.463-6.834-4.681a25.7,25.7,0,0,0-2.724-1.308,2.883,2.883,0,0,0-1.308-1.2c-.872-.363-.946-1.7-.946-1.7-.108-3.158-1.963-3.4-1.963-3.4a6.027,6.027,0,0,0-3.515.626l-.266.02c-1.286.1-2.832.221-4.531.334-4.727.312-5.851,3.373-5.851,3.373a.942.942,0,0,0,.181,1.362c.762.708,5.639,0,5.845-.017a3.166,3.166,0,0,1-1.11-.076c.768-.028,1.824-.057,2.724-.057h.218a11.784,11.784,0,0,0-.082,1.439c0,.906,2.506,1.487,2.506,1.487l7.633,6.8a30.232,30.232,0,0,1,7.851,5.228c3.053,3.084,5.752.422,5.752.422,3.231-.8,12.529-12.039,12.538-12.051h0c0,.329.2,11.26.566,13.455h0a1.459,1.459,0,0,0,.082.326c.436.943-.147,3.52-.4,4.608a12.8,12.8,0,0,0-.184,2.759s-3.486,13.311-3.2,14.481-1.889,6.6-1.889,6.6v4.531l.38-.02a2.444,2.444,0,0,0-.136.227l-.026.048a16.117,16.117,0,0,0,3.889.363c1.563-.144,4.248,1.2,4.248,1.2a11.828,11.828,0,0,0,3.707.612c2.8.181,2.8-1.235,2.8-1.235-.32-1.929-4.741-2.574-4.877-2.594-.357-.224-.691-.467-.966-.677l-.057-.045a1.212,1.212,0,0,0,.048-.13c.473-1.926-2.144-2.761-2.144-2.761v-.47c1.7-.872,2.036-6.859,2.036-6.859s2.549-7.4,2.906-8.638a8.164,8.164,0,0,0,0-3.084l.255-1.6a7.857,7.857,0,0,0,.547-1.306,3.226,3.226,0,0,1,.617-1.524c.4-.473-.436-1.6-.436-1.6l.728-1.886v-2.07l1.7-7.511s1.781-8.748,1.164-11.612a4.926,4.926,0,0,1,.728-4.319,3.578,3.578,0,0,1-.374.17,10.822,10.822,0,0,0,.439-1.207l3.823.473v.057h1.379s-.436-5.381-.436-7.55S241.24,356,241.24,356,241.894,348.388,241.24,348.17Zm-16.973-6.282c0,.212-.02.433-.034.66l-.076.116-.142-.119-.173.269-.051.025c-.374-.193-.566-1.294-.835-1.056l-.037.031c-.059-.068-.119-.088-.181-.031l-.057.048v-.252a6.371,6.371,0,0,0,1.586.2C224.27,341.818,224.267,341.855,224.267,341.889Zm12.716,25.059h.082l-.136.357C236.946,367.185,236.963,367.069,236.983,366.947Zm-13.96,64.224-.521-.13.283-.048.263.173.031.023Zm5.324-.762c-.173-.091-.348-.2-.518-.3C227.886,430.137,228.11,430.253,228.348,430.409Z" transform="translate(-135.95 -251.136)" fill="url(#linear-gradient-2)"/>
    <path id="Path_829" data-name="Path 829" d="M348.693,390.03l-3.43,8.938h.833l-3.226,2.572,5.823.725Z" transform="translate(-245.78 -279.569)" fill="#f86d70"/>
    <path id="Path_830" data-name="Path 830" d="M348.693,390.03l-3.43,8.938-.864-.232-1.529,2.8,5.823.725Z" transform="translate(-245.78 -279.569)" opacity="0.1"/>
    <path id="Path_831" data-name="Path 831" d="M344.44,369.112h5.378l1.974-16.242H344.44Z" transform="translate(-246.905 -252.933)" fill="#f86d70"/>
    <path id="Path_832" data-name="Path 832" d="M344.44,369.112h5.378l1.974-16.242H344.44Z" transform="translate(-246.905 -252.933)" opacity="0.1"/>
    <path id="Path_833" data-name="Path 833" d="M333.964,445.242l1.161-.2,2.668-.453s8.012-1.807,9.666-1.954a10.33,10.33,0,0,0,2.9-.827c.433-.187.708-.329.708-.329l-2.886-5.271-4.478-3.319s-2.832-.6-4.03-2.252a2.654,2.654,0,0,1-.371-2.515c.731-2.266-4.364,2.167-4.364,2.167s.048,1.062,0,2.416c0,.266-.025.544-.045.827a5.582,5.582,0,0,1-.045.566,9.107,9.107,0,0,1-.884,3.557C332.732,439.683,333.964,445.242,333.964,445.242Z" transform="translate(-246.934 -341.459)" fill="#fbbebe"/>
    <path id="Path_834" data-name="Path 834" d="M338.79,433.109h.113c.2,0,.368-.433.566-.453a5.875,5.875,0,0,0,4.061-1.617,2.656,2.656,0,0,1-.371-2.512c.731-2.266-4.364,2.164-4.364,2.164S338.849,431.756,338.79,433.109Z" transform="translate(-250.785 -341.745)" opacity="0.1"/>
    <path id="Path_835" data-name="Path 835" d="M316.89,407.951a6.205,6.205,0,0,0,6.208,6.208,4.323,4.323,0,0,0,.606-.028,6.208,6.208,0,1,0-6.814-6.18Z" transform="translate(-235.088 -323.01)" fill="#fbbebe"/>
    <path id="Path_836" data-name="Path 836" d="M266.45,386.894a7.638,7.638,0,0,0-.224,1.674c-.3,2.014-2.351,3.22-4.2,4.064s-3.942,1.844-4.531,3.789c-.646,2.1.765,4.214,1.745,6.188,1.909,3.846,2.181,8.751-.283,12.269-2.189,3.115-6,4.594-9.6,5.891a9.459,9.459,0,0,0,6.075,2.022c-.824,2.4-3.755,3.195-6.253,3.636a8.985,8.985,0,0,0,4.987,2,11.309,11.309,0,0,0,3.965.074,4.763,4.763,0,0,0,3.223-2.124c.566-.983.759-2.322,1.781-2.818a3.223,3.223,0,0,1,1.453-.212l4.248.045c1.323,0,2.889-.1,3.571-1.232a3.4,3.4,0,0,0,.385-1.563c.184-2.787-.351-5.732.8-8.275.345-.767-1.872-1.982-1.64-2.8a26.109,26.109,0,0,0,.991-7.9c0-2.252,1.464-4.192,2.674-6.092s2.22-4.3,1.266-6.338C275.8,386.917,267.722,383.612,266.45,386.894Z" transform="translate(-186.554 -311.375)" fill="#3f3d56"/>
    <path id="Path_837" data-name="Path 837" d="M330.13,752.909l1.082.717.167.11.031.02,1.283.85,3,.5,2.634-.181s.759-1.586-.433-1.549a2.48,2.48,0,0,1-1.088-.314l-.164-.082h0c-.173-.091-.346-.193-.515-.3h0c-.354-.224-.688-.467-.957-.674-.4-.306-.66-.538-.66-.538Z" transform="translate(-244.578 -573.689)" fill="#fbbebe"/>
    <path id="Path_838" data-name="Path 838" d="M334,757.661l.167.11.031.02,1.283.85,3,.5,2.634-.181s.759-1.586-.433-1.549a2.481,2.481,0,0,1-1.088-.314c.21.164.385.343.4.493.048.405-1.948,1.133-1.948,1.133l-2.815-.745s-.479-.136-1.133-.306l-.062-.017Z" transform="translate(-247.352 -577.725)" opacity="0.1"/>
    <path id="Path_839" data-name="Path 839" d="M317,757.348a15.947,15.947,0,0,0,3.86.36c1.552-.144,4.226,1.192,4.226,1.192a11.848,11.848,0,0,0,3.682.606c2.778.181,2.778-1.229,2.778-1.229-.317-1.917-4.707-2.549-4.843-2.577h0a5.388,5.388,0,0,1,.515.3h0c.312.2.649.47.674.685.048.4-1.949,1.133-1.949,1.133l-2.815-.742s-.479-.139-1.133-.309h-.062a24.163,24.163,0,0,0-2.951-.609,2.049,2.049,0,0,0-1.96,1.133.341.341,0,0,0-.023.057Z" transform="translate(-235.166 -576.721)" fill="#3f3d56"/>
    <path id="Path_840" data-name="Path 840" d="M188.54,573.5l1.226.94s.357-.017.889-.034h.17c.762-.028,1.813-.057,2.7-.057a8.6,8.6,0,0,1,1.725.1c.612.215,1.7-3.5,1.7-3.5l-1.229-.283-.408-.1-.283-.068-1-.235-3.03.346-2.13,1.371Z" transform="translate(-143.088 -443.8)" fill="#fbbebe"/>
    <path id="Path_841" data-name="Path 841" d="M188.54,573.5l1.226.94s.357-.017.889-.034a1.073,1.073,0,0,1-.566-.507c-.793-2.2,3.141-3.141,3.141-3.141l1.832-.079.357-.017h.283l-.408-.1-.283-.068-1-.235-3.03.345-2.13,1.371Z" transform="translate(-143.088 -443.8)" opacity="0.1"/>
    <path id="Path_842" data-name="Path 842" d="M179.007,571.638c.742.685,5.6,0,5.806-.017a3.058,3.058,0,0,1-1.1-.077,1.215,1.215,0,0,1-.85-.609c-.793-2.2,3.141-3.141,3.141-3.141l1.832-.079.354-.017,4.455-.193.215-1.226s-1.447.136-3.719.317c-1.277.1-2.832.221-4.512.331-4.693.312-5.809,3.356-5.809,3.356A.942.942,0,0,0,179.007,571.638Z" transform="translate(-135.973 -440.947)" fill="#3f3d56"/>
    <path id="Path_843" data-name="Path 843" d="M371.684,330.477a1.254,1.254,0,0,0,.108.193l1.082,1.586,2.815.283.031-1.116.473-16.789s1.948-11.26-1.733-10.612-1.371,10.612-1.371,10.612-.419,5.052-.714,6.57C372.089,322.671,370.806,328.636,371.684,330.477Z" transform="translate(-274.146 -252.944)" fill="#fbbebe"/>
    <path id="Path_844" data-name="Path 844" d="M350.14,541.873l.8,1.371,1.793,3.067s3.251,1.192,4.084.283a11.762,11.762,0,0,0,1.294-3.682c.283-1.178.473-2.172.473-2.172Z" transform="translate(-258.921 -422.641)" fill="#fbbebe"/>
    <path id="Path_845" data-name="Path 845" d="M350.14,541.909l.8,1.371a.943.943,0,0,0,.136-.144c.906-1.156,4.9-.246,7.035-.173.283-1.178.473-2.172.473-2.172Z" transform="translate(-258.921 -422.676)" opacity="0.1"/>
    <path id="Path_846" data-name="Path 846" d="M206.16,571.488a8.576,8.576,0,0,1,1.725.1c.612.215,1.7-3.5,1.7-3.5l-1.637-.385,4.455-.193.215-1.226s-1.447.136-3.719.317a4.674,4.674,0,0,0-1.238,1.034l-.068.085A7.423,7.423,0,0,0,206.16,571.488Z" transform="translate(-155.718 -440.947)" opacity="0.1"/>
    <path id="Path_847" data-name="Path 847" d="M330.13,752.88l1.249.827c1.864-.337,3.566-.867,3.767-1.7a.278.278,0,0,0,0-.04c-.4-.306-.66-.538-.66-.538Z" transform="translate(-244.578 -573.661)" opacity="0.1"/>
    <path id="Path_848" data-name="Path 848" d="M317.09,758.433a43.226,43.226,0,0,0,4.911-.527,24.142,24.142,0,0,0-2.954-.615A2.037,2.037,0,0,0,317.09,758.433Z" transform="translate(-235.231 -577.854)" opacity="0.1"/>
    <path id="Path_849" data-name="Path 849" d="M206.64,554.6c0,.9,2.489,1.481,2.489,1.481l7.582,6.749a29.959,29.959,0,0,1,7.794,5.2c3.03,3.067,5.7.433,5.7.433,3.212-.793,12.461-11.983,12.461-11.983s.215,12.779.649,13.716-.144,3.5-.4,4.585a12.746,12.746,0,0,0-.181,2.742s-3.464,13.246-3.175,14.4-1.878,6.57-1.878,6.57v4.512s8.482-.326,8.949-2.237-2.127-2.744-2.127-2.744v-.47c1.7-.867,2.019-6.82,2.019-6.82s2.529-7.363,2.889-8.59a8.031,8.031,0,0,0,0-3.07l.252-1.586a7.919,7.919,0,0,0,.541-1.3,3.212,3.212,0,0,1,.615-1.515c.4-.47-.433-1.589-.433-1.589l.722-1.878v-2.056l1.7-7.471s1.77-8.7,1.156-11.552a4.888,4.888,0,0,1,.722-4.293c-2.9,1.518-4.359-1.861-4.837-3.314-.122-.374-.181-.623-.181-.623a20.26,20.26,0,0,0-7.684-1.116,8.847,8.847,0,0,0-2.206.467c-4.115,1.481-4.764,7.616-4.764,7.616l-3.645,5.559c-1.878,4.945-4.693,5.449-4.693,5.449s-6.6-4.438-6.8-4.656a26.455,26.455,0,0,0-2.708-1.3,2.861,2.861,0,0,0-1.3-1.19c-.867-.362-.937-1.7-.937-1.7-.108-3.141-1.949-3.4-1.949-3.4C206.6,547.1,206.64,553.7,206.64,554.6Z" transform="translate(-156.062 -422.632)" fill="#3f3d56"/>
    <rect id="Rectangle_502" data-name="Rectangle 502" width="3.897" height="12.09" transform="translate(91.219 114.324) rotate(180)" fill="#f86d70"/>
    <rect id="Rectangle_503" data-name="Rectangle 503" width="3.897" height="12.09" transform="translate(91.219 114.324) rotate(180)" opacity="0.1"/>
    <path id="Path_850" data-name="Path 850" d="M372.439,397.41a.172.172,0,0,0,0,.025,1.255,1.255,0,0,0,.108.193l1.082,1.586,2.815.283.031-1.116A11.239,11.239,0,0,1,372.439,397.41Z" transform="translate(-274.904 -319.903)" opacity="0.1"/>
    <path id="Path_851" data-name="Path 851" d="M363.591,398.18s.144,6.35-1.444,7.216-2.206,5.381-2.206,5.381,4.815,3.166,5.888,4.56,3.537,4.713,3.03,5.506,1.229,4.4,1.229,4.4-3.178,6.5-2.455,8.952.793,8.949.793,8.949H369.8s-.433-5.341-.433-7.508,1.442-9.89,1.442-9.89.651-7.579,0-7.794-4.475-3.248-4.764-4.622,2.022-14.161,2.022-14.161A12.641,12.641,0,0,1,363.591,398.18Z" transform="translate(-265.945 -320.455)" fill="#f86d70"/>
    <path id="Path_852" data-name="Path 852" d="M336.12,453.285a6.181,6.181,0,0,0,.943,2.475l2.668-.453s8.012-1.807,9.666-1.954a10.331,10.331,0,0,0,2.9-.827,12.79,12.79,0,0,0-3.583-5.877l-1.017-.943a17.034,17.034,0,0,0-5.126-3.277c.119.1,8.525,7.276,6.684,8.683s-6.8-2.019-6.8-2.019l-5.636-4.843-.2-.176-.326.507a4.712,4.712,0,0,1,.484.232,8.293,8.293,0,0,1,3.965,4.928C341.9,453.637,336.12,453.285,336.12,453.285Z" transform="translate(-248.871 -352.173)" opacity="0.1"/>
    <path id="Path_853" data-name="Path 853" d="M330,541.8s5.341,2.959,6.638,1.3a2.207,2.207,0,0,1,1.626-.566c-.122-.374-.181-.623-.181-.623a20.26,20.26,0,0,0-7.684-1.116C330.156,541.4,330,541.8,330,541.8Z" transform="translate(-244.485 -422.639)" fill="#444053"/>
    <path id="Path_854" data-name="Path 854" d="M332.458,444.1l5.84,5.024s4.936,3.438,6.8,2.019-6.687-8.686-6.687-8.686h0a17.275,17.275,0,0,1,5.123,3.268l1.017.943c2.674,2.478,3.277,2.478,3.367,6.12a5.118,5.118,0,0,1-.518,2.419c-.867.85-1.473,7.021-1.34,7.743s-1.614,6.956-1.048,8.689-7.08-.867-8.375.8-6.636-1.3-6.636-1.3,2.96-7.582,3.682-8.086,1.589-4.4,0-6.208a6.734,6.734,0,0,1-1.73-3.537s5.777.357,4.619-3.537a8.174,8.174,0,0,0-4.441-5.16Z" transform="translate(-244.485 -352.195)" fill="#e8e8f0"/>
    <path id="Path_855" data-name="Path 855" d="M350.858,493.38s-2.24,4.223-5.137,5.319c-.093.034-.184.065-.283.094C342.413,499.713,351.085,494.688,350.858,493.38Z" transform="translate(-255.09 -388.693)" opacity="0.1"/>
    <path id="Path_856" data-name="Path 856" d="M243.76,337.412a16.858,16.858,0,0,0,1.948,3.682c.867.937,7.29,10.323,7.29,10.323l.544,1.133.467.966,4.115-.433.283-1.66-.159-.193a19.437,19.437,0,0,0-2.3-2.407,26.6,26.6,0,0,1-2.815-3.1s-5.845-6.066-6.279-7.726-6.282-11.612-7.579-9.89S243.76,337.412,243.76,337.412Z" transform="translate(-179.321 -270.084)" fill="#fbbebe"/>
    <g id="Group_2239" data-name="Group 2239" transform="translate(69.14 74.14)" opacity="0.1">
      <path id="Path_857" data-name="Path 857" d="M279.419,519.07a3.226,3.226,0,0,0-1.453.21c-1.02.5-1.212,1.835-1.779,2.818a4.763,4.763,0,0,1-3.226,2.124,7.232,7.232,0,0,1-.782.108,8.879,8.879,0,0,0,2.481-.108,4.763,4.763,0,0,0,3.226-2.124c.566-.983.759-2.322,1.779-2.818a2.264,2.264,0,0,1,.85-.2Z" transform="translate(-272.18 -481.239)"/>
      <path id="Path_858" data-name="Path 858" d="M320.372,401.627c0-2.252,1.464-4.192,2.671-6.092s2.22-4.3,1.266-6.338c-.816-1.742-5.732-4.078-8.57-3.617,2.778.36,6.2,2.189,6.871,3.617.954,2.039-.059,4.438-1.266,6.338s-2.676,3.84-2.671,6.092a26.438,26.438,0,0,1-.994,7.9c-.229.807,1.982,2.028,1.643,2.792-1.15,2.549-.612,5.489-.8,8.275a3.441,3.441,0,0,1-.388,1.563,3.311,3.311,0,0,1-2.858,1.223h.988c1.32,0,2.886-.1,3.568-1.232a3.441,3.441,0,0,0,.388-1.563c.184-2.787-.354-5.729.8-8.275.346-.765-1.872-1.982-1.643-2.792A26.124,26.124,0,0,0,320.372,401.627Z" transform="translate(-303.074 -385.521)"/>
    </g>
    <path id="Path_859" data-name="Path 859" d="M290.12,411.56l.467.966,4.115-.433.283-1.66-.159-.193C294.388,410.455,291.1,412.038,290.12,411.56Z" transform="translate(-215.899 -329.1)" opacity="0.1"/>
    <path id="Path_860" data-name="Path 860" d="M305.909,422.9s-1.011-1.586-1.589-1.155-.8-1.3-1.133-1.011-1.3,1.093-1.7-.031c-.314-.895-3.736-6.556-5.123-8.833-.357-.589-.581-.952-.581-.952s-3.9,1.948-4.834,1.3v1.371l.793.074,4.248,7.93s1.337,2.127,1.246,2.869,1.713,3.99,2,4.206,3.4,3.826,3.4,3.826,1.589,7.8.215,9.963a14.781,14.781,0,0,1-3.753,3.753,12.117,12.117,0,0,0-.612,2.311c.1.218-.833,1.156-.4,1.444s1.011,2.308,1.011,2.308,2.022-3.248,3.115-3.753,2.492-7.148,2.492-7.148.4-3.914.43-6.44S305.043,422.9,305.909,422.9Z" transform="translate(-216.494 -329.587)" opacity="0.1"/>
    <path id="Path_861" data-name="Path 861" d="M305.139,422.9s-1.008-1.586-1.586-1.155-.8-1.3-1.133-1.011-1.294,1.093-1.7-.031c-.317-.895-3.738-6.556-5.123-8.833l-.581-.952s-3.9,1.948-4.837,1.3v1.371l.8.074,4.248,7.93s1.34,2.127,1.246,2.869,1.7,3.99,2,4.206,3.4,3.826,3.4,3.826,1.589,7.8.218,9.963a13.279,13.279,0,0,1-2.614,2.894,5.052,5.052,0,0,0-1.7,2.725,1.076,1.076,0,0,0-.051.453c.1.215-.833,1.156-.4,1.444s1.017,2.317,1.017,2.317,2.022-3.248,3.115-3.753,2.5-7.148,2.5-7.148.4-3.914.43-6.44S304.29,422.9,305.139,422.9Z" transform="translate(-215.942 -329.587)" fill="#f86d70"/>
    <path id="Path_862" data-name="Path 862" d="M307.141,569.21a14.52,14.52,0,0,1,4.248,1.442c1.215.875-4.619-1.371-4.619-1.371Z" transform="translate(-227.834 -443.048)" opacity="0.1"/>
    <path id="Path_863" data-name="Path 863" d="M333.83,596.35s3.163,2.637,2.6,5.018-2.028,8.375-2.028,8.375Z" transform="translate(-247.23 -462.501)" opacity="0.1"/>
    <path id="Path_864" data-name="Path 864" d="M225.555,578.45s-4.458.487-4.169,1.065,4.169-.532,4.169-.532Z" transform="translate(-166.622 -449.671)" opacity="0.1"/>
    <path id="Path_865" data-name="Path 865" d="M351.336,652.15s.283.36-1.371,0-.433-1.47-.433-1.47Z" transform="translate(-258.174 -501.444)" opacity="0.1"/>
    <path id="Path_866" data-name="Path 866" d="M345.682,673.055a10.535,10.535,0,0,1-3.481,0C340.987,672.7,345.682,673.055,345.682,673.055Z" transform="translate(-253.087 -517.368)" opacity="0.1"/>
    <path id="Path_867" data-name="Path 867" d="M323.923,741.981s-.4-.433-2.382.359-2.778.83-3.356.567S323.923,741.981,323.923,741.981Z" transform="translate(-235.989 -566.803)" opacity="0.1"/>
    <path id="Path_868" data-name="Path 868" d="M339.2,576.28,336.38,580.2S337.9,576.767,339.2,576.28Z" transform="translate(-249.058 -448.115)" opacity="0.1"/>
    <path id="Path_869" data-name="Path 869" d="M316.628,449.15s-.122,1.3-1.937,1.807a4.962,4.962,0,0,0-2.161.918" transform="translate(-231.962 -356.99)" opacity="0.1"/>
    <path id="Path_870" data-name="Path 870" d="M297.947,415.88a7.77,7.77,0,0,1-4.9,1.34" transform="translate(-217.999 -333.142)" opacity="0.1"/>
    <path id="Path_871" data-name="Path 871" d="M316.78,540.6s.7.439,2.379-1.481" transform="translate(-235.009 -421.479)" opacity="0.1"/>
    <path id="Path_872" data-name="Path 872" d="M372.994,466.6a1.23,1.23,0,0,0-.405-.952l-.47-.566a2.175,2.175,0,0,0-.309-.317c-.283-.218-.646-.283-.94-.479" transform="translate(-273.78 -367.842)" opacity="0.1"/>
    <path id="Path_873" data-name="Path 873" d="M861.46,123.771s-23.844-1.439-21.04,15.271a4.06,4.06,0,0,0,2.118,4.293s.043-1.238,2.447-.816a11.187,11.187,0,0,0,2.591.125,5.4,5.4,0,0,0,3.166-1.308h0s6.7-2.77,9.309-13.724c0,0,1.929-2.39,1.852-3l-4.025,1.719s1.377,2.9.283,5.316c0,0-.13-5.211-.9-5.1-.156.025-2.09,1.005-2.09,1.005s2.365,5.055.581,8.731c0,0,.677-6.231-1.32-8.366l-2.832,1.654s2.764,5.222.889,9.485c0,0,.482-6.537-1.487-9.083l-2.566,2s2.6,5.149,1.014,8.683c0,0-.207-7.61-1.569-8.185a15.775,15.775,0,0,0-2.589,2.792s1.779,3.738.674,5.71c0,0-.677-5.069-1.232-5.1,0,0-2.237,3.359-2.47,5.664a12.2,12.2,0,0,1,1.929-5.981,6.742,6.742,0,0,0-3.427,1.773s.348-2.373,3.979-2.58c0,0,1.849-2.549,2.342-2.7,0,0-3.608-.3-5.8.668,0,0,1.926-2.24,6.46-1.221l2.535-2.07s-4.752-.649-6.769.068c0,0,2.32-1.982,7.451-.538l2.758-1.648a25.307,25.307,0,0,0-6.466-.566s2.549-1.374,7.276.116l1.982-.886s-2.968-.583-3.837-.677-.915-.331-.915-.331a10.3,10.3,0,0,1,5.576.62S861.533,124.035,861.46,123.771Z" transform="translate(-610.184 -123.74)" fill="#3f51b5" opacity="0.1"/>
    <path id="Path_874" data-name="Path 874" d="M787.142,138.824s-10.762-.651-9.5,6.9a1.846,1.846,0,0,0,.954,1.943s.02-.566,1.107-.371a4.959,4.959,0,0,0,1.17.057,2.427,2.427,0,0,0,1.43-.592h0s3.03-1.249,4.208-6.2c0,0,.87-1.082.836-1.359l-1.818.776a3.26,3.26,0,0,1,.133,2.4s-.059-2.356-.408-2.3c-.071,0-.946.453-.946.453s1.071,2.286.263,3.948c0,0,.306-2.815-.6-3.781l-1.28.748s1.252,2.359.4,4.285c0,0,.218-2.954-.671-4.1l-1.158.915s1.172,2.328.459,3.922c0,0-.093-3.438-.711-3.7a7.105,7.105,0,0,0-1.17,1.263s.8,1.7.306,2.577c0,0-.306-2.291-.566-2.3a7.685,7.685,0,0,0-1.116,2.549,5.537,5.537,0,0,1,.872-2.7,3.048,3.048,0,0,0-1.549.8s.159-1.071,1.8-1.167a7.741,7.741,0,0,1,1.059-1.221,6.64,6.64,0,0,0-2.62.3,2.959,2.959,0,0,1,2.92-.566l1.133-.935a9.772,9.772,0,0,0-3.059.031s1.048-.895,3.367-.244l1.246-.745a11.2,11.2,0,0,0-2.923-.252,4.471,4.471,0,0,1,3.288.051l.892-.4s-1.342-.266-1.736-.306-.414-.15-.414-.15a4.642,4.642,0,0,1,2.521.283A11.426,11.426,0,0,0,787.142,138.824Z" transform="translate(-565.275 -134.542)" fill="#3f51b5" opacity="0.1"/>
    <ellipse id="Ellipse_58" data-name="Ellipse 58" cx="11.388" cy="1.926" rx="11.388" ry="1.926" transform="translate(248.073 180.451)" fill="#3f51b5"/>
    <path id="Path_875" data-name="Path 875" d="M934.166,743.3a3.3,3.3,0,0,0,1.085-1.64,1.462,1.462,0,0,0-.759-1.668c-.7-.266-1.442.218-2.005.705a2.677,2.677,0,0,1-1.949.94,2.973,2.973,0,0,0,.918-2.778,1.166,1.166,0,0,0-.255-.566c-.388-.414-1.088-.238-1.552.088-1.473,1.036-1.883,3.039-1.892,4.837a9.1,9.1,0,0,1-.025-1.982,2.043,2.043,0,0,0-.751-1.764,2.24,2.24,0,0,0-1.133-.266,2.352,2.352,0,0,0-1.849.527,1.825,1.825,0,0,0,.071,2.266,7.208,7.208,0,0,0,1.917,1.535,4.251,4.251,0,0,1,1.368,1.306,1.187,1.187,0,0,1,.1.235h4.152a11.542,11.542,0,0,0,2.557-1.773Z" transform="translate(-669.995 -564.067)" fill="#3f51b5"/>
  </g>
</svg>
