<svg xmlns="http://www.w3.org/2000/svg" width="35.256" height="35.256" viewBox="0 0 35.256 35.256">
  <g id="judge" transform="translate(0 0)">
    <path id="Path_344" data-name="Path 344" d="M26.157,15.951V6.019L20.138,0H0V31.844H18.231A9.659,9.659,0,1,0,26.157,15.95ZM20.471,1.941l3.745,3.745H20.471ZM1.137,30.706V1.137h18.2V6.823H25.02v9.127A9.638,9.638,0,0,0,17.4,30.706Zm24.452,3.412a8.53,8.53,0,1,1,8.53-8.53A8.539,8.539,0,0,1,25.589,34.118Zm0,0" fill="#59a4e0"/>
    <path id="Path_345" data-name="Path 345" d="M296.53,272h-6.824A1.708,1.708,0,0,0,288,273.706v2.275a1.708,1.708,0,0,0,1.706,1.706h1.706V282.8a1.706,1.706,0,0,0,3.412,0v-5.118h1.706a1.708,1.708,0,0,0,1.706-1.706v-2.275A1.708,1.708,0,0,0,296.53,272Zm-1.706,1.137v3.412h-3.412v-3.412Zm-5.686,2.843v-2.275a.57.57,0,0,1,.569-.569h.569v3.412h-.569A.57.57,0,0,1,289.137,275.981Zm4.549,6.824a.569.569,0,0,1-1.137,0v-5.118h1.137Zm3.412-6.824a.57.57,0,0,1-.569.569h-.569v-3.412h.569a.57.57,0,0,1,.569.569Zm0,0" transform="translate(-267.529 -252.666)" fill="#59a4e0"/>
    <path id="Path_346" data-name="Path 346" d="M50.275,274.275a1.138,1.138,0,0,1,1.137,1.137h1.137a2.272,2.272,0,0,0-1.706-2.194V272H49.706v1.218a2.27,2.27,0,0,0,.569,4.468,1.137,1.137,0,1,1-1.137,1.137H48a2.272,2.272,0,0,0,1.706,2.194v1.218h1.137v-1.218a2.27,2.27,0,0,0-.569-4.468,1.137,1.137,0,0,1,0-2.275Zm0,0" transform="translate(-44.589 -252.666)" fill="#59a4e0"/>
    <path id="Path_347" data-name="Path 347" d="M45.647,35.808,43.108,32h-8.57L32,35.808v7.565H45.647Zm-10.5-2.671H42.5l1.517,2.275H33.63Zm4.814,9.1H37.686V38.824H39.96Zm1.137,0V37.686H36.549v4.549H33.137V36.549H44.51v5.686Zm0,0" transform="translate(-29.725 -29.726)" fill="#59a4e0"/>
    <path id="Path_348" data-name="Path 348" d="M240,112h6.824v1.137H240Zm0,0" transform="translate(-222.941 -104.039)" fill="#59a4e0"/>
    <path id="Path_349" data-name="Path 349" d="M240,144h6.824v1.137H240Zm0,0" transform="translate(-222.941 -133.765)" fill="#59a4e0"/>
    <path id="Path_350" data-name="Path 350" d="M240,176h6.824v1.137H240Zm0,0" transform="translate(-222.941 -163.49)" fill="#59a4e0"/>
    <path id="Path_351" data-name="Path 351" d="M32,208H50.2v1.137H32Zm0,0" transform="translate(-29.726 -193.216)" fill="#59a4e0"/>
    <path id="Path_352" data-name="Path 352" d="M32,240H46.785v1.137H32Zm0,0" transform="translate(-29.726 -222.941)" fill="#59a4e0"/>
  </g>
</svg>
