<svg id="_002-search" data-name="002-search" xmlns="http://www.w3.org/2000/svg" width="32.902" height="32.616" viewBox="0 0 32.902 32.616">
  <g id="Group_506" data-name="Group 506" transform="translate(20.568 5.418)">
    <g id="Group_505" data-name="Group 505">
      <path id="Path_327" data-name="Path 327" d="M327.02,91.094l-6.139-4.458a.508.508,0,1,0-.6.822l6.139,4.457a.508.508,0,1,0,.6-.822Z" transform="translate(-320.075 -86.539)" fill="#e0a827"/>
    </g>
  </g>
  <g id="Group_508" data-name="Group 508" transform="translate(3.891 7.106)">
    <g id="Group_507" data-name="Group 507">
      <path id="Path_328" data-name="Path 328" d="M69.047,113.231a.508.508,0,0,0-.581-.422L60.973,114a.508.508,0,1,0,.159,1l7.493-1.189A.508.508,0,0,0,69.047,113.231Z" transform="translate(-60.544 -112.802)" fill="#e0a827"/>
    </g>
  </g>
  <g id="Group_510" data-name="Group 510" transform="translate(0 0)">
    <g id="Group_509" data-name="Group 509">
      <path id="Path_329" data-name="Path 329" d="M32.692,10.6l-11.4-8.278a.508.508,0,0,0-.71.113L15.61,9.279l-.685-4.314a.508.508,0,0,0-.581-.422L.429,6.752a.508.508,0,0,0-.422.581L2.724,24.46a.508.508,0,0,0,.581.422l3.2-.507v5.451a.508.508,0,0,0,.508.508H21.1a.508.508,0,0,0,.508-.508V28.393a6.467,6.467,0,0,0,.983-.693l1.266,1.266-.407.407a.508.508,0,0,0,0,.719l4.6,4.6a.508.508,0,0,0,.719,0L30.3,33.157a.508.508,0,0,0,0-.718l-4.6-4.6a.508.508,0,0,0-.719,0l-.407.407L23.31,26.982a6.421,6.421,0,0,0,1.549-4.2c0-.167-.007-.335-.02-.5l7.965-10.97A.508.508,0,0,0,32.692,10.6Zm-7.35,18.321,3.88,3.88-.814.814-3.88-3.88ZM6.5,12.484v2.082L5,14.805a.508.508,0,1,0,.159,1L6.5,15.6v3.361l-.825.131a.508.508,0,1,0,.159,1l.666-.106v3.361L3.648,23.8,1.09,7.676,14,5.627l.764,4.815-1.114,1.534H7.011A.508.508,0,0,0,6.5,12.484ZM20.592,29.317H7.519V12.993H20.592v3.7a6.407,6.407,0,0,0-2.2-.385c-.142,0-.283.005-.424.014a.511.511,0,0,0-.118-.014H10.262a.508.508,0,0,0,0,1.016H14.91a6.487,6.487,0,0,0-1.477,1.3,6.409,6.409,0,0,0-1.149,2.02H10.262a.508.508,0,0,0,0,1.016h1.757a6.485,6.485,0,0,0-.1,1.118,6.412,6.412,0,0,0,.384,2.2H10.263a.508.508,0,0,0,0,1.016h2.516a6.477,6.477,0,0,0,7.814,2.867v.452Zm1.654-2.681h0a5.46,5.46,0,0,1-1.377,1,5.458,5.458,0,0,1-7.337-2.38h0a5.393,5.393,0,0,1-.594-2.478,5.454,5.454,0,0,1,5.453-5.453,5.452,5.452,0,0,1,5.421,4.86h0a5.554,5.554,0,0,1,.032.592A5.417,5.417,0,0,1,22.247,26.636ZM24.583,20.9a6.446,6.446,0,0,0-2.974-3.732V14.52l2.762,2.005a.508.508,0,1,0,.6-.822l-3.359-2.439v-.78a.508.508,0,0,0-.508-.508H19.835l-1.007-.731a.508.508,0,0,0-.693.731H14.907l.8-1.107h0L21.106,3.44l10.579,7.681Z" transform="translate(0 -2.222)" fill="#e0a827"/>
    </g>
  </g>
  <g id="Group_512" data-name="Group 512" transform="translate(14.089 16.257)">
    <g id="Group_511" data-name="Group 511">
      <path id="Path_330" data-name="Path 330" d="M223.553,255.205a4.3,4.3,0,1,0,4.3,4.3A4.306,4.306,0,0,0,223.553,255.205Zm0,7.587a3.285,3.285,0,1,1,3.285-3.285A3.289,3.289,0,0,1,223.553,262.792Z" transform="translate(-219.252 -255.205)" fill="#e0a827"/>
    </g>
  </g>
  <g id="Group_514" data-name="Group 514" transform="translate(17.612 20.321)">
    <g id="Group_513" data-name="Group 513">
      <path id="Path_331" data-name="Path 331" d="M276.286,318.6a.508.508,0,0,0-.719,0l-1.355,1.355a.508.508,0,0,0,.719.718l1.355-1.355A.508.508,0,0,0,276.286,318.6Z" transform="translate(-274.064 -318.451)" fill="#e0a827"/>
    </g>
  </g>
  <g id="Group_516" data-name="Group 516" transform="translate(16.934 18.154)">
    <g id="Group_515" data-name="Group 515">
      <path id="Path_332" data-name="Path 332" d="M265.881,284.868a.508.508,0,0,0-.719,0l-1.49,1.49a.508.508,0,0,0,.719.718l1.49-1.49A.508.508,0,0,0,265.881,284.868Z" transform="translate(-263.524 -284.72)" fill="#e0a827"/>
    </g>
  </g>
</svg>
