<svg id="_004-selection" data-name="004-selection" xmlns="http://www.w3.org/2000/svg" width="34.497" height="34.862" viewBox="0 0 34.497 34.862">
  <path id="Path_339" data-name="Path 339" d="M26.942,19.755a7.512,7.512,0,0,0-2.709.511,12.109,12.109,0,0,0-3.412-.75,2.716,2.716,0,0,1-1.867-2.266,6.658,6.658,0,0,1,.73-.734,4.306,4.306,0,0,0,1.59-4.081A3.825,3.825,0,0,0,23.4,9.983c.127-.768.311-2.591-.73-2.935a1.574,1.574,0,0,0-.919-.017c0-.528-.01-1.131-.045-1.832C21.5,1.278,17.393.084,15.228,0H14.3C12.155.084,8.05,1.278,7.849,5.2,7.813,5.9,7.8,6.5,7.8,7.03a1.547,1.547,0,0,0-.909.017c-1.051.344-.872,2.167-.742,2.963a3.845,3.845,0,0,0,2.121,2.426,4.31,4.31,0,0,0,1.59,4.081,6.611,6.611,0,0,1,.73.734,2.718,2.718,0,0,1-1.867,2.266,10.744,10.744,0,0,0-6.772,2.831A8.508,8.508,0,0,0,0,28.366c0,6.422,14.171,6.5,14.775,6.5a38.352,38.352,0,0,0,8.386-1.025,7.55,7.55,0,1,0,3.781-14.082ZM14.778,27.611q-.692-.572-1.271-1.117l1.059-2.113a1.046,1.046,0,0,0,.422,0L16.047,26.5c-.382.357-.806.729-1.268,1.113Zm.578-4.951a.581.581,0,0,1-1.162,0V21.5h1.162Zm1.556,2.975-.884-1.769a1.734,1.734,0,0,0,.49-1.207V21.7a27.441,27.441,0,0,0,3.416-.772,12.154,12.154,0,0,1-3.023,4.71Zm5.327-17.5a3.962,3.962,0,0,1,.015,1.627,2.547,2.547,0,0,1-.967,1.305c.03-.235.074-.465.127-.725A14.325,14.325,0,0,0,21.7,8.323a.863.863,0,0,1,.54-.184ZM7.3,9.8a3.939,3.939,0,0,1,.016-1.656.822.822,0,0,1,.538.18,14.392,14.392,0,0,0,.285,2.025c.052.26.1.49.127.726A2.581,2.581,0,0,1,7.3,9.8Zm2.142,2.654c.006-.112.007-.228.012-.341a.67.67,0,0,0,0-.086c0-.125.012-.246.012-.373a7.162,7.162,0,0,0-.189-1.536A13.275,13.275,0,0,1,8.989,7.99V7.981a25.879,25.879,0,0,1,.019-2.722c.2-3.839,5.127-4.088,5.313-4.1h.884c.209.009,5.139.259,5.334,4.1a25.964,25.964,0,0,1,.019,2.726,13.24,13.24,0,0,1-.283,2.125,7.2,7.2,0,0,0-.189,1.536c0,.127.008.248.013.373a.5.5,0,0,0,0,.087c0,.113.005.229.011.34a3.18,3.18,0,0,1-1.183,3.185,8.007,8.007,0,0,0-1.052,1.1l-.014.018c-.191.239-.363.469-.512.675-.6.829-.879,1.166-1.671,1.166H13.869c-.792,0-1.067-.338-1.669-1.169-.149-.206-.32-.435-.511-.673l-.016-.021a7.994,7.994,0,0,0-1.053-1.1,3.181,3.181,0,0,1-1.183-3.185Zm2.024,5.934a2.753,2.753,0,0,0,2.408,1.372h1.813a2.752,2.752,0,0,0,2.407-1.372,3.793,3.793,0,0,0,1.083,1.55h-.008c-.218.058-.457.123-.707.185l-.044.011c-.244.058-.5.12-.764.174l-.065.015c-.264.058-.535.11-.805.157l-.054.01c-.168.029-.332.049-.5.073a.863.863,0,0,0-.581-.225H13.9a.864.864,0,0,0-.581.225,24.8,24.8,0,0,1-2.946-.629,3.789,3.789,0,0,0,1.086-1.545ZM13.03,21.7v.962a1.734,1.734,0,0,0,.49,1.207l-.883,1.767a12.145,12.145,0,0,1-3.021-4.706,27.49,27.49,0,0,0,3.417.77Zm1.745,12c-3.786,0-13.613-.958-13.613-5.333A7.414,7.414,0,0,1,2.8,23.143a9.508,9.508,0,0,1,5.556-2.432c.214,1.059,1.021,3.374,3.99,6.286l.012.012a27.309,27.309,0,0,0,2.05,1.81.585.585,0,0,0,.073.037.608.608,0,0,0,.085.044.555.555,0,0,0,.148.032.541.541,0,0,0,.058.013c.011,0,.022,0,.032-.005a.538.538,0,0,0,.085-.014.572.572,0,0,0,.116-.036.6.6,0,0,0,.081-.045c.016-.01.035-.016.051-.028.77-.621,1.452-1.22,2.022-1.78,3-2.93,3.812-5.263,4.029-6.328a10.7,10.7,0,0,1,1.583.3,7.531,7.531,0,0,0-.854,11.921,39.407,39.407,0,0,1-7.147.766Zm12.167,0a6.343,6.343,0,0,1-3.353-.96.608.608,0,0,0-.072-.044,6.382,6.382,0,0,1,.914-11.263.534.534,0,0,0,.082-.033,6.391,6.391,0,1,1,2.429,12.3Zm0,0" transform="translate(0 0)" fill="#7fd140"/>
  <path id="Path_340" data-name="Path 340" d="M329.279,345.243,325.522,349l-.27-.271a1.743,1.743,0,1,0-2.465,2.465l1.5,1.5a1.742,1.742,0,0,0,2.464,0l4.989-4.988a1.743,1.743,0,1,0-2.465-2.465Zm1.643,1.643-4.989,4.989a.581.581,0,0,1-.821,0l-1.5-1.5a.58.58,0,0,1,.822-.818l.475.475a.872.872,0,0,0,1.233,0l3.961-3.961a.581.581,0,1,1,.822.821Zm0,0" transform="translate(-300.324 -321.251)" fill="#7fd140"/>
</svg>
