<svg xmlns="http://www.w3.org/2000/svg" width="24.212" height="26.261" viewBox="0 0 24.212 26.261">
  <g id="_003-contract" data-name="003-contract" transform="translate(-2.5 -0.003)">
    <g id="Group_2310" data-name="Group 2310" transform="translate(4.962 0.003)">
      <path id="Path_1152" data-name="Path 1152" d="M25.325,23.8,8.91,23.8a.41.41,0,0,1-.41-.41V.413A.41.41,0,0,1,8.91,0H22.863a.411.411,0,0,1,.29.12l2.462,2.46a.41.41,0,0,1,.12.291V23.394a.411.411,0,0,1-.41.41Zm-16-.823,15.594,0V3.043L22.693.824H9.321Z" transform="translate(-8.5 -0.003)" fill="#fff"/>
    </g>
    <g id="Group_2311" data-name="Group 2311" transform="translate(3.732 1.233)">
      <path id="Path_1153" data-name="Path 1153" d="M22.328,26.8l-16.415,0a.41.41,0,0,1-.41-.41V3.41A.41.41,0,0,1,5.913,3h1.23a.41.41,0,1,1,0,.821h-.82V25.978l15.594,0v-.822a.41.41,0,1,1,.821,0v1.232a.411.411,0,0,1-.41.41Z" transform="translate(-5.503 -3)" fill="#fff"/>
    </g>
    <g id="Group_2312" data-name="Group 2312" transform="translate(2.5 2.463)">
      <path id="Path_1154" data-name="Path 1154" d="M19.325,29.8,2.91,29.8a.41.41,0,0,1-.41-.41V6.407A.41.41,0,0,1,2.91,6H4.14a.41.41,0,1,1,0,.821h-.82V28.975l15.594,0v-.822a.41.41,0,1,1,.821,0v1.232a.411.411,0,0,1-.41.41Z" transform="translate(-2.5 -5.997)" fill="#fff"/>
    </g>
    <g id="Group_2313" data-name="Group 2313" transform="translate(18.915 2.463)">
      <path id="Path_1155" data-name="Path 1155" d="M45.373,6.818H42.91a.41.41,0,0,1,0-.821h2.462a.41.41,0,1,1,0,.821Z" transform="translate(-42.5 -5.997)" fill="#fff"/>
    </g>
    <g id="Group_2314" data-name="Group 2314" transform="translate(18.915 0.003)">
      <path id="Path_1156" data-name="Path 1156" d="M42.91,3.284a.41.41,0,0,1-.41-.41V.413a.41.41,0,1,1,.821,0v2.46A.41.41,0,0,1,42.91,3.284Z" transform="translate(-42.5 -0.003)" fill="#fff"/>
    </g>
    <g id="Group_2326" data-name="Group 2326" transform="translate(23.018 5.334)">
      <g id="Group_2315" data-name="Group 2315" transform="translate(0)">
        <path id="Path_1157" data-name="Path 1157" d="M54.552,14.634a.41.41,0,0,1-.41-.41.41.41,0,0,0-.821,0,.41.41,0,1,1-.821,0,1.231,1.231,0,1,1,2.462,0A.41.41,0,0,1,54.552,14.634Z" transform="translate(-52.5 -12.993)" fill="#fff"/>
      </g>
      <g id="Group_2316" data-name="Group 2316" transform="translate(0 0.821)">
        <path id="Path_1158" data-name="Path 1158" d="M52.91,29.767a.41.41,0,0,1-.41-.41V15.4a.41.41,0,1,1,.821,0V29.356A.41.41,0,0,1,52.91,29.767Z" transform="translate(-52.5 -14.993)" fill="#fff"/>
      </g>
      <g id="Group_2317" data-name="Group 2317" transform="translate(1.642 0.821)">
        <path id="Path_1159" data-name="Path 1159" d="M56.91,29.767a.41.41,0,0,1-.41-.41V15.4a.41.41,0,1,1,.821,0V29.356A.41.41,0,0,1,56.91,29.767Z" transform="translate(-56.5 -14.993)" fill="#fff"/>
      </g>
      <g id="Group_2318" data-name="Group 2318" transform="translate(0 14.774)">
        <path id="Path_1160" data-name="Path 1160" d="M53.731,51.046a.41.41,0,0,1-.342-.183l-.821-1.231a.41.41,0,1,1,.683-.456l.821,1.231a.41.41,0,0,1-.341.638Z" transform="translate(-52.499 -48.994)" fill="#fff"/>
      </g>
      <g id="Group_2319" data-name="Group 2319" transform="translate(0.821 14.774)">
        <path id="Path_1161" data-name="Path 1161" d="M54.91,51.046a.41.41,0,0,1-.341-.638l.821-1.231a.41.41,0,1,1,.683.456l-.821,1.231A.41.41,0,0,1,54.91,51.046Z" transform="translate(-54.499 -48.994)" fill="#fff"/>
      </g>
      <g id="Group_2320" data-name="Group 2320" transform="translate(0.821 16.005)">
        <path id="Path_1162" data-name="Path 1162" d="M54.91,53.225a.41.41,0,0,1-.41-.41V52.4a.41.41,0,1,1,.821,0v.41A.41.41,0,0,1,54.91,53.225Z" transform="translate(-54.5 -51.994)" fill="#fff"/>
      </g>
      <g id="Group_2321" data-name="Group 2321" transform="translate(0 13.953)">
        <path id="Path_1163" data-name="Path 1163" d="M54.552,47.815H52.91a.41.41,0,0,1,0-.821h1.641a.41.41,0,0,1,0,.821Z" transform="translate(-52.5 -46.994)" fill="#fff"/>
      </g>
      <g id="Group_2322" data-name="Group 2322" transform="translate(2.052 1.231)">
        <path id="Path_1164" data-name="Path 1164" d="M58.731,17.634a.41.41,0,0,1-.41-.41.411.411,0,0,0-.41-.41.41.41,0,1,1,0-.821,1.233,1.233,0,0,1,1.231,1.231A.41.41,0,0,1,58.731,17.634Z" transform="translate(-57.5 -15.993)" fill="#fff"/>
      </g>
      <g id="Group_2323" data-name="Group 2323" transform="translate(2.873 2.052)">
        <path id="Path_1165" data-name="Path 1165" d="M59.91,23.738a.41.41,0,0,1-.41-.41V18.4a.41.41,0,1,1,.821,0v4.924A.41.41,0,0,1,59.91,23.738Z" transform="translate(-59.5 -17.993)" fill="#fff"/>
      </g>
      <g id="Group_2324" data-name="Group 2324" transform="translate(1.642 1.231)">
        <path id="Path_1166" data-name="Path 1166" d="M57.321,16.814h-.41a.41.41,0,0,1,0-.821h.41a.41.41,0,0,1,0,.821Z" transform="translate(-56.5 -15.993)" fill="#fff"/>
      </g>
      <g id="Group_2325" data-name="Group 2325" transform="translate(0 4.924)">
        <path id="Path_1167" data-name="Path 1167" d="M54.552,25.814H52.91a.41.41,0,0,1,0-.821h1.641a.41.41,0,0,1,0,.821Z" transform="translate(-52.5 -24.993)" fill="#fff"/>
      </g>
    </g>
    <g id="Group_2336" data-name="Group 2336" transform="translate(7.835 11.081)">
      <g id="Group_2327" data-name="Group 2327" transform="translate(0 1.642)">
        <path id="Path_1168" data-name="Path 1168" d="M26.58,31.821H15.91a.41.41,0,1,1,0-.821H26.58a.41.41,0,0,1,0,.821Z" transform="translate(-15.5 -31)" fill="#fff"/>
      </g>
      <g id="Group_2328" data-name="Group 2328">
        <path id="Path_1169" data-name="Path 1169" d="M26.58,27.819H15.91a.41.41,0,1,1,0-.821H26.58a.41.41,0,0,1,0,.821Z" transform="translate(-15.5 -26.998)" fill="#fff"/>
      </g>
      <g id="Group_2329" data-name="Group 2329" transform="translate(0 3.284)">
        <path id="Path_1170" data-name="Path 1170" d="M26.58,35.822H15.91a.41.41,0,1,1,0-.821H26.58a.41.41,0,1,1,0,.821Z" transform="translate(-15.5 -35.001)" fill="#fff"/>
      </g>
      <g id="Group_2330" data-name="Group 2330" transform="translate(0 4.926)">
        <path id="Path_1171" data-name="Path 1171" d="M26.58,39.822H15.91a.41.41,0,1,1,0-.821H26.58a.41.41,0,0,1,0,.821Z" transform="translate(-15.5 -39.001)" fill="#fff"/>
      </g>
      <g id="Group_2331" data-name="Group 2331" transform="translate(0 6.567)">
        <path id="Path_1172" data-name="Path 1172" d="M21.245,43.821H15.91a.41.41,0,1,1,0-.821h5.335a.41.41,0,0,1,0,.821Z" transform="translate(-15.5 -43)" fill="#fff"/>
      </g>
      <g id="Group_2332" data-name="Group 2332" transform="translate(7.797 9.028)">
        <path id="Path_1173" data-name="Path 1173" d="M37.783,49.818H34.91a.41.41,0,1,1,0-.821h2.873a.41.41,0,1,1,0,.821Z" transform="translate(-34.5 -48.997)" fill="#fff"/>
      </g>
      <g id="Group_2333" data-name="Group 2333" transform="translate(8.618 8.207)">
        <path id="Path_1174" data-name="Path 1174" d="M36.91,49.459a.41.41,0,0,1-.41-.41V47.407a.41.41,0,0,1,.821,0v1.641A.41.41,0,0,1,36.91,49.459Z" transform="translate(-36.5 -46.997)" fill="#fff"/>
      </g>
      <g id="Group_2334" data-name="Group 2334" transform="translate(8.618 8.207)">
        <path id="Path_1175" data-name="Path 1175" d="M36.91,49.46a.41.41,0,0,1-.328-.656l1.231-1.641a.41.41,0,0,1,.656.492L37.238,49.3A.408.408,0,0,1,36.91,49.46Z" transform="translate(-36.5 -46.998)" fill="#fff"/>
      </g>
      <g id="Group_2335" data-name="Group 2335" transform="translate(9.849 8.207)">
        <path id="Path_1176" data-name="Path 1176" d="M39.91,49.459a.41.41,0,0,1-.41-.41V47.407a.41.41,0,0,1,.821,0v1.641A.41.41,0,0,1,39.91,49.459Z" transform="translate(-39.5 -46.997)" fill="#fff"/>
      </g>
    </g>
    <g id="Group_2342" data-name="Group 2342" transform="translate(7.836 2.464)">
      <g id="Group_2337" data-name="Group 2337" transform="translate(1.231 1.231)">
        <path id="Path_1177" data-name="Path 1177" d="M19.733,11.463a1.231,1.231,0,1,1,1.231-1.231A1.233,1.233,0,0,1,19.733,11.463Zm0-1.641a.41.41,0,1,0,.41.41A.411.411,0,0,0,19.733,9.822Z" transform="translate(-18.502 -9.001)" fill="#fff"/>
      </g>
      <g id="Group_2338" data-name="Group 2338" transform="translate(2.052)">
        <path id="Path_1178" data-name="Path 1178" d="M20.912,8.053a.41.41,0,0,1-.41-.41V6.411a.41.41,0,0,1,.821,0V7.642A.41.41,0,0,1,20.912,8.053Z" transform="translate(-20.502 -6.001)" fill="#fff"/>
      </g>
      <g id="Group_2339" data-name="Group 2339" transform="translate(0 2.761)">
        <path id="Path_1179" data-name="Path 1179" d="M15.913,17.356a.4.4,0,0,1-.163-.034.41.41,0,0,1-.214-.539l1.641-3.8a.41.41,0,1,1,.753.325l-1.641,3.8A.409.409,0,0,1,15.913,17.356Z" transform="translate(-15.503 -12.73)" fill="#fff"/>
      </g>
      <g id="Group_2340" data-name="Group 2340" transform="translate(2.462 2.762)">
        <path id="Path_1180" data-name="Path 1180" d="M23.555,17.356a.41.41,0,0,1-.377-.248l-1.643-3.8a.41.41,0,1,1,.753-.325l1.643,3.8a.41.41,0,0,1-.214.539.4.4,0,0,1-.162.034Z" transform="translate(-21.502 -12.731)" fill="#fff"/>
      </g>
      <g id="Group_2341" data-name="Group 2341" transform="translate(0.41 4.514)">
        <path id="Path_1181" data-name="Path 1181" d="M20.195,17.822H16.912a.41.41,0,0,1,0-.821h3.283a.41.41,0,0,1,0,.821Z" transform="translate(-16.502 -17.001)" fill="#fff"/>
      </g>
    </g>
  </g>
</svg>
