<svg xmlns="http://www.w3.org/2000/svg" width="31.778" height="29.13" viewBox="0 0 31.778 29.13">
  <path id="_001-users" data-name="001-users" d="M29.4,25.83l-5.176-2.242a1.049,1.049,0,0,1-.373-.408l3.456,0a6.123,6.123,0,0,0,2.627-.355,1.573,1.573,0,0,0,.658-2.346c-.988-1.406-3.293-5.079-3.365-8.8,0-.064-.21-6.4-6.467-6.451a7.442,7.442,0,0,0-2.548.452,4.4,4.4,0,0,0-.788-1.3C16.341,3.129,14.576,2.5,12.182,2.5s-4.16.629-5.248,1.87A4.748,4.748,0,0,0,5.826,7.825v2.817a2.112,2.112,0,0,0-.53,1.39v2.119A2.106,2.106,0,0,0,6.089,15.8a11.116,11.116,0,0,0,1.855,3.833v1.753a1.4,1.4,0,0,1-.729,1.229L2.49,25.189A4.777,4.777,0,0,0,0,29.385V31.63H31.778V29.672A4.271,4.271,0,0,0,29.4,25.83Zm-6.1,4.74H1.059V29.385A3.716,3.716,0,0,1,3,26.12l4.725-2.577A2.459,2.459,0,0,0,9,21.384V19.255l-.123-.147a10,10,0,0,1-1.806-3.742l-.048-.21-.181-.117a1.057,1.057,0,0,1-.49-.888V12.033a1.045,1.045,0,0,1,.355-.781l.175-.157V7.8l0-.069a3.678,3.678,0,0,1,.85-2.659c.878-1,2.375-1.508,4.451-1.508s3.563.5,4.441,1.5a3.441,3.441,0,0,1,.766,1.518c.008.037.016.074.024.11s.015.075.021.111.013.081.019.12.008.057.012.084c.008.066.014.129.019.188a.119.119,0,0,1,0,.014c0,.057.006.111.008.16,0,.01,0,.017,0,.027,0,.044,0,.086,0,.122v.016c0,.124-.011.2-.011.2l0,3.367.175.158a1.043,1.043,0,0,1,.355.781v2.119a1.053,1.053,0,0,1-.753,1.006l-.264.081-.085.262a11.088,11.088,0,0,1-1.5,3.026,6.969,6.969,0,0,1-.443.571l-.132.15v2.185a2.5,2.5,0,0,0,.034.395c0,.028.012.054.017.082a2.485,2.485,0,0,0,.082.312c.008.024.016.047.025.07a2.463,2.463,0,0,0,.146.32l.019.035a2.418,2.418,0,0,0,.267.383l.121.149h.021a2.467,2.467,0,0,0,.628.453l5.06,2.53A3.7,3.7,0,0,1,23.3,29.488Zm7.415,0H24.363V29.488a4.752,4.752,0,0,0-2.641-4.273L18.09,23.4a.917.917,0,0,0-.841-1.279H16.075a1.35,1.35,0,0,1-.06-.136,1.156,1.156,0,0,1-.127-.551V19.643c.121-.148.249-.317.381-.5a12.121,12.121,0,0,0,1.565-3.071,2.1,2.1,0,0,0,1.232-1.916V12.033a2.112,2.112,0,0,0-.53-1.39V7.826a4.66,4.66,0,0,0-.044-1.133,6.338,6.338,0,0,1,2.272-.413c5.212.043,5.4,5.2,5.408,5.413.078,4.016,2.514,7.906,3.558,9.391a.514.514,0,0,1,.074.438.5.5,0,0,1-.283.326,5.207,5.207,0,0,1-2.159.272H23.716a.976.976,0,0,0-.876,1.407,2.211,2.211,0,0,0,.94,1.021l5.162,2.236a3.217,3.217,0,0,1,1.776,2.888Z" transform="translate(0 -2.5)" fill="#ea714b"/>
</svg>
