<svg id="deposit" xmlns="http://www.w3.org/2000/svg" width="23.45" height="23.45" viewBox="0 0 23.45 23.45">
  <path id="Path_1191" data-name="Path 1191" d="M23.071,13.616H21.937V12.481a.378.378,0,0,0-.378-.378h-8.7V1.891a.378.378,0,0,0-.378-.378H11.347V.378A.378.378,0,0,0,10.968,0H2.648a.378.378,0,0,0-.378.378V12.1H1.891a.378.378,0,0,0-.378.378v1.135H.378A.378.378,0,0,0,0,13.994v9.077a.378.378,0,0,0,.378.378H23.071a.378.378,0,0,0,.378-.378V13.994A.378.378,0,0,0,23.071,13.616Zm-3.4-.756v1.513H3.782V12.859ZM5.3,15.129H18.155v.756H5.3Zm5.3-3.026H6.052V4.474a1.142,1.142,0,0,0,.692-.692H9.9a1.141,1.141,0,0,0,.692.692V12.1Zm1.513,0h-.756V4.16a.378.378,0,0,0-.378-.378A.379.379,0,0,1,10.59,3.4a.378.378,0,0,0-.378-.378H6.43a.378.378,0,0,0-.378.378.379.379,0,0,1-.378.378A.378.378,0,0,0,5.3,4.16V12.1H4.539V2.269H12.1ZM3.026.756H10.59v.756H4.16a.378.378,0,0,0-.378.378V12.1H3.026Zm-.756,12.1h.756v1.891a.378.378,0,0,0,.378.378H4.539v1.135a.378.378,0,0,0,.378.378H18.533a.378.378,0,0,0,.378-.378V15.129h1.135a.378.378,0,0,0,.378-.378V12.859h.756V21.18H2.269Zm20.424,9.834H.756V14.372h.756v7.186a.378.378,0,0,0,.378.378H21.558a.378.378,0,0,0,.378-.378V14.372h.756Zm0,0" transform="translate(0 0)"/>
  <path id="Path_1192" data-name="Path 1192" d="M217.513,368a1.513,1.513,0,1,0,1.513,1.513A1.514,1.514,0,0,0,217.513,368Zm0,2.269a.756.756,0,1,1,.756-.756A.757.757,0,0,1,217.513,370.269Zm0,0" transform="translate(-205.788 -350.602)"/>
  <path id="Path_1193" data-name="Path 1193" d="M153.135,98.269A1.135,1.135,0,1,0,152,97.135,1.136,1.136,0,0,0,153.135,98.269Zm0-1.513a.378.378,0,1,1-.378.378A.379.379,0,0,1,153.135,96.756Zm0,0" transform="translate(-144.814 -91.461)"/>
  <path id="Path_1194" data-name="Path 1194" d="M138.458,200a.947.947,0,0,0-.946.946v.378a.189.189,0,1,1-.378,0V200h-.756v.756H136v.756h.4a.945.945,0,0,0,1.872-.189v-.378a.189.189,0,0,1,.378,0v1.324h.756v-.756h.378v-.756h-.4A.947.947,0,0,0,138.458,200Zm0,0" transform="translate(-129.57 -190.545)"/>
  <path id="Path_1195" data-name="Path 1195" d="M345.891,112h-.756v.756a1.135,1.135,0,0,0,0,2.269h.756a.378.378,0,1,1,0,.756H344v.756h1.135v.756h.756v-.756a1.135,1.135,0,1,0,0-2.269h-.756a.378.378,0,0,1,0-.756h1.891v-.756h-1.135Zm0,0" transform="translate(-327.737 -106.705)"/>
  <path id="Path_1196" data-name="Path 1196" d="M296.165,47.167a4.158,4.158,0,1,0-6.876-4.117,4.157,4.157,0,1,0,6.876,4.117Zm-2.87-6.41a3.4,3.4,0,0,1,3.01,4.983,4.15,4.15,0,0,0-5.828-3.489A3.4,3.4,0,0,1,293.3,40.756Zm-1.135,8.7a3.4,3.4,0,1,1,3.4-3.4A3.408,3.408,0,0,1,292.16,49.455Zm0,0" transform="translate(-274.384 -38.109)"/>
</svg>
