<svg xmlns="http://www.w3.org/2000/svg" width="38" height="30" viewBox="0 0 38 30">
  <g id="Group_2237" data-name="Group 2237" transform="translate(-1160 -205)" opacity="0.3">
    <circle id="Ellipse_33" data-name="Ellipse 33" cx="3" cy="3" r="3" transform="translate(1160 205)" fill="#fff"/>
    <circle id="Ellipse_53" data-name="Ellipse 53" cx="3" cy="3" r="3" transform="translate(1192 205)" fill="#fff"/>
    <circle id="Ellipse_48" data-name="Ellipse 48" cx="3" cy="3" r="3" transform="translate(1160 221)" fill="#fff"/>
    <circle id="Ellipse_55" data-name="Ellipse 55" cx="3" cy="3" r="3" transform="translate(1192 221)" fill="#fff"/>
    <circle id="Ellipse_52" data-name="Ellipse 52" cx="3" cy="3" r="3" transform="translate(1160 229)" fill="#fff"/>
    <circle id="Ellipse_56" data-name="Ellipse 56" cx="3" cy="3" r="3" transform="translate(1192 229)" fill="#fff"/>
    <circle id="Ellipse_40" data-name="Ellipse 40" cx="3" cy="3" r="3" transform="translate(1160 213)" fill="#fff"/>
    <circle id="Ellipse_54" data-name="Ellipse 54" cx="3" cy="3" r="3" transform="translate(1192 213)" fill="#fff"/>
    <circle id="Ellipse_34" data-name="Ellipse 34" cx="3" cy="3" r="3" transform="translate(1168 205)" fill="#fff"/>
    <circle id="Ellipse_45" data-name="Ellipse 45" cx="3" cy="3" r="3" transform="translate(1168 221)" fill="#fff"/>
    <circle id="Ellipse_51" data-name="Ellipse 51" cx="3" cy="3" r="3" transform="translate(1168 229)" fill="#fff"/>
    <circle id="Ellipse_39" data-name="Ellipse 39" cx="3" cy="3" r="3" transform="translate(1168 213)" fill="#fff"/>
    <circle id="Ellipse_35" data-name="Ellipse 35" cx="3" cy="3" r="3" transform="translate(1176 205)" fill="#fff"/>
    <circle id="Ellipse_46" data-name="Ellipse 46" cx="3" cy="3" r="3" transform="translate(1176 221)" fill="#fff"/>
    <circle id="Ellipse_50" data-name="Ellipse 50" cx="3" cy="3" r="3" transform="translate(1176 229)" fill="#fff"/>
    <circle id="Ellipse_38" data-name="Ellipse 38" cx="3" cy="3" r="3" transform="translate(1176 213)" fill="#fff"/>
    <circle id="Ellipse_36" data-name="Ellipse 36" cx="3" cy="3" r="3" transform="translate(1184 205)" fill="#fff"/>
    <circle id="Ellipse_47" data-name="Ellipse 47" cx="3" cy="3" r="3" transform="translate(1184 221)" fill="#fff"/>
    <circle id="Ellipse_49" data-name="Ellipse 49" cx="3" cy="3" r="3" transform="translate(1184 229)" fill="#fff"/>
    <circle id="Ellipse_37" data-name="Ellipse 37" cx="3" cy="3" r="3" transform="translate(1184 213)" fill="#fff"/>
  </g>
</svg>
