<svg xmlns="http://www.w3.org/2000/svg" xmlns:xlink="http://www.w3.org/1999/xlink" width="25" height="26" viewBox="0 0 25 26">
  <defs>
    <clipPath id="clip-path">
      <rect id="Rectangle_514" data-name="Rectangle 514" width="25" height="26" transform="translate(742 943.087)" fill="#fff" stroke="#707070" stroke-width="1"/>
    </clipPath>
  </defs>
  <g id="Mask_Group_4" data-name="Mask Group 4" transform="translate(-742 -943.087)" clip-path="url(#clip-path)">
    <g id="Group_2088" data-name="Group 2088" transform="translate(743 944.087)">
      <path id="Path_2" data-name="Path 2" d="M84.544,73.089A11.861,11.861,0,1,0,96,84.943,11.673,11.673,0,0,0,84.544,73.089Zm0,21.837a9.99,9.99,0,1,1,9.648-9.984A9.831,9.831,0,0,1,84.544,94.926Z" transform="translate(-73.089 -73.089)" fill="#fff"/>
      <path id="Path_3" data-name="Path 3" d="M194.8,150.739c0-.75,1.06-.878,1.979-.878a7.257,7.257,0,0,1,3.041.951l.194-2.067a7.3,7.3,0,0,0-2.81-.713l.283-2.1h-1.891l.283,2.1c-2.439.237-3.235,1.7-3.235,2.926,0,3.091,5.567,2.433,5.567,4.335,0,.714-.653.969-1.8.969a4.82,4.82,0,0,1-3.323-1.152l-.3,2.323a7.291,7.291,0,0,0,3.094.732l-.283,2.03h1.891l-.283-2.049c2.863-.256,3.376-1.829,3.376-2.872C200.576,151.6,194.8,152.513,194.8,150.739Z" transform="translate(-185.153 -141.209)" fill="#fff"/>
    </g>
  </g>
</svg>
