<svg id="_004-confirmation" data-name="004-confirmation" xmlns="http://www.w3.org/2000/svg" width="24.02" height="24.02" viewBox="0 0 24.02 24.02">
  <path id="Path_1182" data-name="Path 1182" d="M74.34,346.888l.548-.548,2.324,2.324-.548.548Zm0,0" transform="translate(-70.74 -329.567)"/>
  <path id="Path_1183" data-name="Path 1183" d="M362.344,90.9l.548-.548,1.55,1.55-.548.548Zm0,0" transform="translate(-344.796 -85.972)"/>
  <path id="Path_1184" data-name="Path 1184" d="M408.775,136.387a.387.387,0,1,1-.387-.387A.387.387,0,0,1,408.775,136.387Zm0,0" transform="translate(-388.241 -129.414)"/>
  <path id="Path_1185" data-name="Path 1185" d="M344.775,72.387a.387.387,0,1,1-.387-.387A.387.387,0,0,1,344.775,72.387Zm0,0" transform="translate(-327.341 -68.513)"/>
  <path id="Path_1186" data-name="Path 1186" d="M23.691,19.43l-.547-4.38-1.061,1.061-2.164-2.164,3.44-3.44a2.258,2.258,0,0,0,0-3.193L16.706.661a2.258,2.258,0,0,0-3.193,0L10.634,3.541a5.03,5.03,0,0,0-7.093,7.093L.661,13.513a2.258,2.258,0,0,0,0,3.193l6.653,6.653a2.258,2.258,0,0,0,3.193,0l3.44-3.44,2.164,2.164L15.05,23.144l4.38.547-.547-4.38-1.061,1.061-2.164-2.164,2.552-2.552,2.164,2.164-1.061,1.061ZM4.806,11.693,3.714,12.785l7.521,7.521,9.071-9.071L12.785,3.714,11.693,4.806a5.069,5.069,0,0,0-.512-.717L13.172,2.1,15.11,4.035v.775l4.1,4.1h.775l1.937,1.937L11.235,21.535l-8.75-8.75,1.6-1.6A5.018,5.018,0,0,0,4.806,11.693Zm7.247-6.151.733-.733,6.426,6.426-7.975,7.975L4.809,12.785l.733-.733a5.025,5.025,0,0,0,6.51-6.51ZM15.11.775a1.493,1.493,0,0,1,1.049.434l6.653,6.653a1.483,1.483,0,0,1,0,2.1l-.341.341L20.306,8.136h-.775L15.884,4.489V3.714L13.72,1.55l.341-.341A1.493,1.493,0,0,1,15.11.775ZM7.361,3.1A4.262,4.262,0,1,1,3.1,7.361,4.267,4.267,0,0,1,7.361,3.1Zm2.6,19.712a1.483,1.483,0,0,1-2.1,0L1.209,16.158a1.483,1.483,0,0,1,0-2.1l.728-.728,8.75,8.75Zm7.862-1.342.489-.489.227,1.819-1.819-.227.488-.489L14.5,19.371l.614-.614Zm.935-6.359.614-.614,2.712,2.712.489-.489.227,1.819L20.98,18.31l.488-.489Zm0,0"/>
  <path id="Path_1187" data-name="Path 1187" d="M91.885,99.753l-1.749-1.53L87.6,101.067l-.948-.948-1.644,1.644,2.7,2.7ZM86.1,101.762l.548-.548.98.98L90.2,99.311l.584.511-3.113,3.51Zm0,0" transform="translate(-80.891 -93.466)"/>
  <path id="Path_1188" data-name="Path 1188" d="M242.892,194.158l.5-.5.775.775,1.162-1.162a1.332,1.332,0,0,0,.387-.935,1.314,1.314,0,0,0-.387-.935l-.227-.227a.548.548,0,0,1,0-.774l.614-.614.614.614a.546.546,0,0,1,.161.388.552.552,0,0,1-.16.387l-.5.5.548.548.5-.5a1.332,1.332,0,0,0,.387-.935,1.309,1.309,0,0,0-.243-.759l.517-.517-.548-.548-.5.5-.775-.775-1.162,1.162a1.323,1.323,0,0,0,0,1.871l.227.227a.546.546,0,0,1,.161.388.553.553,0,0,1-.16.387l-.614.614-.615-.615a.548.548,0,0,1,0-.774l.5-.5-.548-.548-.5.5a1.317,1.317,0,0,0-.145,1.695l-.516.516Zm0,0" transform="translate(-230.608 -179.55)"/>
  <path id="Path_1189" data-name="Path 1189" d="M146.34,282.892l.548-.548,3.874,3.874-.548.548Zm0,0" transform="translate(-139.253 -268.67)"/>
  <path id="Path_1190" data-name="Path 1190" d="M170.34,258.892l.548-.548,3.874,3.874-.548.548Zm0,0" transform="translate(-162.091 -245.833)"/>
</svg>
