<svg xmlns="http://www.w3.org/2000/svg" width="251.854" height="181.16" viewBox="0 0 251.854 181.16">
  <g id="undraw_informed" transform="translate(0 -1)">
    <path id="Path_717" data-name="Path 717" d="M506.523,652.97c2.479-5.355,4.957-10.789,6.033-16.592s.624-12.1-2.457-17.132-9.149-8.445-14.94-7.308c-4.756.934-8.575,4.68-10.811,8.98s-3.133,9.151-4,13.919c-.281-5.417-.579-10.921-2.378-16.038s-5.343-9.886-10.393-11.866-11.619-.423-14.281,4.3c-3.75,6.659,1.222,16-3.089,22.308a11.837,11.837,0,1,0-23.348,3.778,15.952,15.952,0,0,0,6.331,9.151c3.028,2.281,6.55,4.925,10.035,6.421Z" transform="translate(-349.559 -470.907)" fill="#f2f2f2"/>
    <path id="Path_718" data-name="Path 718" d="M438.387,680.652c5,1.746,10.039,3.513,14.6,6.243a26.918,26.918,0,0,1,10.028,9.961,17.715,17.715,0,0,1,2.191,7.36c.033.54.879.544.845,0a20.781,20.781,0,0,0-5.888-12.7,37.239,37.239,0,0,0-12.938-8.45c-2.824-1.2-5.719-2.219-8.614-3.231C438.1,679.657,437.876,680.474,438.387,680.652Z" transform="translate(-357.787 -523.854)" fill="#fff"/>
    <path id="Path_719" data-name="Path 719" d="M541.283,610.461a76.141,76.141,0,0,1,7.324,16.259,77.07,77.07,0,0,1,3.378,17.509,76.111,76.111,0,0,1,.08,10c-.031.543.814.542.845,0a77.106,77.106,0,0,0-1.083-17.961,78.033,78.033,0,0,0-5.188-17.228,76.092,76.092,0,0,0-4.627-9.009.423.423,0,0,0-.73.427Z" transform="translate(-431.864 -473.595)" fill="#fff"/>
    <path id="Path_720" data-name="Path 720" d="M662.254,628.722a123.242,123.242,0,0,0-9.09,30.579q-.713,4.442-1.1,8.928c-.047.542.8.539.845,0a122.785,122.785,0,0,1,6.765-30.816q1.5-4.191,3.313-8.264C663.2,628.655,662.474,628.225,662.254,628.722Z" transform="translate(-511.463 -487.001)" fill="#fff"/>
    <path id="Path_721" data-name="Path 721" d="M182.952,642.28a39.948,39.948,0,0,1-29.881-39.275,16.052,16.052,0,0,1,1.206-6.528,7.388,7.388,0,0,1,4.855-4.252,7.646,7.646,0,0,1,6.655,2.215,20.315,20.315,0,0,1,4,6.056c6.435,13.168,11.324,27.3,13.154,41.838Z" transform="translate(-153.067 -460.849)" fill="#f2f2f2"/>
    <path id="Path_722" data-name="Path 722" d="M170.711,593.2l4.51,10.247,4.51,10.247c1.428,3.245,2.854,6.492,4.33,9.716,1.463,3.2,2.977,6.369,4.591,9.491s3.326,6.184,5.186,9.161q.347.556.7,1.108c.163.255.572.018.407-.238-1.9-2.955-3.642-6-5.281-9.108s-3.173-6.271-4.649-9.46c-1.484-3.206-2.911-6.437-4.334-9.67l-4.494-10.21-4.51-10.247-.561-1.275c-.122-.277-.529-.037-.407.238Z" transform="translate(-165.724 -461.389)" fill="#fff"/>
    <path id="Path_723" data-name="Path 723" d="M182.973,718.439a23.377,23.377,0,0,1-26.117-12.324,9.393,9.393,0,0,1-1.136-3.715,4.323,4.323,0,0,1,1.373-3.518,4.474,4.474,0,0,1,4.053-.647,11.889,11.889,0,0,1,3.712,2.065,78.619,78.619,0,0,1,18.124,18.17Z" transform="translate(-154.969 -536.937)" fill="#f2f2f2"/>
    <path id="Path_724" data-name="Path 724" d="M158.9,702.233l5.108,4.1,5.108,4.1c1.618,1.3,3.234,2.6,4.871,3.875s3.265,2.5,4.946,3.688,3.4,2.313,5.166,3.356q.33.195.663.386c.154.088.3-.145.147-.234-1.782-1.022-3.512-2.133-5.2-3.3s-3.34-2.4-4.968-3.656-3.249-2.556-4.861-3.851l-5.089-4.088-5.108-4.1-.636-.511c-.138-.111-.285.123-.147.234Z" transform="translate(-157.217 -539.769)" fill="#fff"/>
    <path id="Path_725" data-name="Path 725" d="M428.981,771.1h-233.1a.336.336,0,1,1,0-.671h233.1a.336.336,0,0,1,0,.671Z" transform="translate(-183.579 -588.937)" fill="#3f3d56"/>
    <path id="Path_726" data-name="Path 726" d="M917.188,653.515H901.407a.7.7,0,0,1-.7.7H885.211a3.624,3.624,0,0,0-.595.563,3.5,3.5,0,0,0-.817,2.254v.564a3.523,3.523,0,0,0,3.522,3.522h29.866a3.525,3.525,0,0,0,3.522-3.522v-.564A3.527,3.527,0,0,0,917.188,653.515Z" transform="translate(-677.91 -504.967)" fill="#3f3d56"/>
    <rect id="Rectangle_491" data-name="Rectangle 491" width="3.663" height="25.922" transform="translate(222.653 156.016)" fill="#3f3d56"/>
    <path id="Path_727" data-name="Path 727" d="M930.09,762.553c0,.4-5.55.153-12.4.153s-12.4.243-12.4-.153,5.551-3.534,12.4-3.534S930.09,762.157,930.09,762.553Z" transform="translate(-693.349 -580.744)" fill="#3f3d56"/>
    <path id="Path_728" data-name="Path 728" d="M907.209,642.625l-.614-3.843a1.852,1.852,0,0,0-2.119-1.536l-6.337,1.011-10.853,1.733-3.531.564h7.658a.7.7,0,0,1,.7.7v.555a.7.7,0,0,1-.7.7H871.925a1.784,1.784,0,0,0-.685.564,1.827,1.827,0,0,0-.349,1.4l.174,1.093.211,1.327.228,1.426a1.849,1.849,0,0,0,2.113,1.533l5.035-.8,14.522-2.319,12.5-1.995A1.856,1.856,0,0,0,907.209,642.625Z" transform="translate(-668.621 -493.265)" fill="#ebebeb"/>
    <path id="Path_729" data-name="Path 729" d="M878.772,656.579a1.791,1.791,0,0,0-.713-.564h-5.387a1.782,1.782,0,0,0-.716.564,1.822,1.822,0,0,0-.386,1.124v21.473a1.848,1.848,0,0,0,1.846,1.846h3.9a1.848,1.848,0,0,0,1.846-1.846V657.7a1.827,1.827,0,0,0-.386-1.124Z" transform="translate(-669.126 -506.762)" fill="#ebebeb"/>
    <path id="Path_730" data-name="Path 730" d="M870.948,518.758l-.037-.048-2.418-2.978a1.783,1.783,0,0,0-.459-.4,1.353,1.353,0,0,0-.3-.152,1.78,1.78,0,0,0-.482-.118,1.885,1.885,0,0,0-.332-.006l-.006,0a1.827,1.827,0,0,0-1.02.406l-4.962,4.024-6.376,5.173-9.515,7.72-.693.564h12.04l.7-.564,2.3-1.868.163-.13,11.118-9.019.009-.006a1.822,1.822,0,0,0,.527-.69,1.858,1.858,0,0,0,.146-.555A1.832,1.832,0,0,0,870.948,518.758Z" transform="translate(-649.575 -405.514)" fill="#ebebeb"/>
    <path id="Path_731" data-name="Path 731" d="M896.533,518.652a4.594,4.594,0,0,0-1-2.057,4.542,4.542,0,0,0-1.874-1.324c-.113-.042-.223-.082-.335-.113a4.833,4.833,0,0,0-.778-.163l-.006,0a4.6,4.6,0,0,0-3.325.919l-8.582,6.559a1.821,1.821,0,0,0-.606,1.288,1.87,1.87,0,0,0,.155.837c.028.059.059.118.093.175a1.615,1.615,0,0,0,.237.316l1.375,1.544,3.2,3.587.09.1.206.234a1.845,1.845,0,0,0,2.612.116l7.4-7.951a4.568,4.568,0,0,0,.9-1.417A4.639,4.639,0,0,0,896.533,518.652Z" transform="translate(-675.197 -405.456)" fill="#2f2e41"/>
    <circle id="Ellipse_27" data-name="Ellipse 27" cx="14.122" cy="14.122" r="14.122" transform="translate(210.486 74.749)" fill="#ebebeb"/>
    <path id="Path_732" data-name="Path 732" d="M876.442,635.725l-.386-2.423-.228-1.423a1.849,1.849,0,0,0-2.116-1.533l-10.264,1.637-2.784.445-.564.09v3.08h9.23a.7.7,0,0,1,.7.7v.555a.7.7,0,0,1-.7.7H840.12c0,.006,0,.011,0,.017l.175,1.093.44,2.75a1.849,1.849,0,0,0,2.113,1.533l5.035-.8,1.1-.175.211-.034,7.376-1.178,5.018-.8,7.962-1.271.118-.02,5.238-.834A1.851,1.851,0,0,0,876.442,635.725Z" transform="translate(-646.537 -488.309)" fill="#ebebeb"/>
    <path id="Path_733" data-name="Path 733" d="M916.891,533.343c0,11.513-1.169,18.4-19.2,16.427l-.073-.009a53.542,53.542,0,0,1-9.5-1.817,28.218,28.218,0,0,1-4.688-1.837c-.355-.18-.7-.369-1.031-.563h13.462a.7.7,0,0,0,.7-.7v-.555a.7.7,0,0,0-.7-.7h-9.23v-17.8a2.068,2.068,0,0,0-2.065-2.065H877.05c.065-.186.13-.375.2-.564a46.153,46.153,0,0,1,2.5-5.686,43.371,43.371,0,0,1,4.671-7.207,30.019,30.019,0,0,1,4.181-4.28c2.826-2.333,5.9-3.776,9.025-3.776C909.139,502.205,916.891,521.83,916.891,533.343Z" transform="translate(-673.062 -396.29)" fill="#2f2e41"/>
    <path id="Path_734" data-name="Path 734" d="M942,437.388l.015-.528a4.365,4.365,0,0,1-2.5-.564,1.622,1.622,0,0,1-.628-1.195.927.927,0,0,1,.3-.764,1.6,1.6,0,0,1,1.633-.014l.437.2-.837-6.119-.523.072.712,5.205a1.863,1.863,0,0,0-1.762.254,1.443,1.443,0,0,0-.491,1.185,2.146,2.146,0,0,0,.844,1.6A4.856,4.856,0,0,0,942,437.388Z" transform="translate(-717.097 -343.282)" fill="#2f2e41"/>
    <rect id="Rectangle_492" data-name="Rectangle 492" width="2.842" height="0.528" transform="translate(217.379 85.642)" fill="#2f2e41"/>
    <rect id="Rectangle_493" data-name="Rectangle 493" width="2.842" height="0.528" transform="translate(226.351 85.642)" fill="#2f2e41"/>
    <path id="Path_735" data-name="Path 735" d="M929.422,375.011a6.388,6.388,0,0,0-4.937-2.525,22.617,22.617,0,0,0-6.312.624,16.842,16.842,0,0,1-7.067.3,6.967,6.967,0,0,1-4.736-3.826,8.91,8.91,0,0,1-.519-5.942,10.8,10.8,0,0,1,3.533-5.362,18.12,18.12,0,0,1,12.216-4.022,20.654,20.654,0,0,1,11.973,4.21,19.447,19.447,0,0,1,6.9,10.811,20.273,20.273,0,0,1-.982,12.751c-.952,2.209-2.329,4.2-3.391,6.352-.989,2-1.751,4.335-1.135,6.571a6.1,6.1,0,0,0,4.116,4.237,4.323,4.323,0,0,0,4.807-1.962,3.615,3.615,0,0,0-5.766-4.363,3.775,3.775,0,0,0-.755,2.768c.074.5-.689.713-.763.21a4.466,4.466,0,0,1,8.326-2.883,4.825,4.825,0,0,1-.729,5.185A5.054,5.054,0,0,1,939.048,400a6.822,6.822,0,0,1-4.586-4.08,8.8,8.8,0,0,1,.386-6.681c.94-2.271,2.335-4.307,3.438-6.5a18.5,18.5,0,0,0,1.877-6.321,20,20,0,0,0-2.852-12.668,18.588,18.588,0,0,0-10.238-7.781,19.425,19.425,0,0,0-12.854.34c-4.022,1.585-7.906,5.039-7.86,9.678a7.132,7.132,0,0,0,2.273,5.324c1.814,1.58,4.339,1.715,6.62,1.468s4.523-.918,6.828-1.089a10.664,10.664,0,0,1,5.957,1,5.957,5.957,0,0,1,2.069,1.919c.283.426-.4.822-.684.4Z" transform="translate(-693.543 -290.02)" fill="#2f2e41"/>
    <path id="Path_736" data-name="Path 736" d="M930.472,536.042l-1.119-.778-2.082-1.445a1.849,1.849,0,0,0-2.57.465l-6.787,9.769-6.32,9.1-.564.811v12.09h.051a1.84,1.84,0,0,0,1.152-.563,1.648,1.648,0,0,0,.178-.217l1.967-2.834,4.86-7,5.038-7.247.479-.69,6.176-8.89a1.6,1.6,0,0,0,.093-.146,1.478,1.478,0,0,0,.076-.149A1.845,1.845,0,0,0,930.472,536.042Z" transform="translate(-697.468 -418.76)" fill="#ebebeb"/>
    <path id="Path_737" data-name="Path 737" d="M947.1,526.88a4.532,4.532,0,0,0-.625-.344,4.609,4.609,0,0,0-5.63,1.454l-6.413,8.7a1.838,1.838,0,0,0,.614,2.547l5.838,3.663.073.045.293.183a1.852,1.852,0,0,0,2.539-.62l4.528-8.988.076-.149,0,0,.279-.561A4.61,4.61,0,0,0,947.1,526.88Z" transform="translate(-714.077 -413.464)" fill="#2f2e41"/>
    <path id="Path_738" data-name="Path 738" d="M840.75,656.015v21.214a1.848,1.848,0,0,0,1.846,1.846h3.9a1.848,1.848,0,0,0,1.846-1.846V656.015Z" transform="translate(-646.99 -506.762)" fill="#ebebeb"/>
    <path id="Path_739" data-name="Path 739" d="M826.358,596.417h-8.667V579.184a2.632,2.632,0,0,0-2.629-2.629h-32.14a2.632,2.632,0,0,0-2.632,2.628v17.7a2.632,2.632,0,0,0,2.632,2.629h43.436c.045,0,.087,0,.13-.006s.079-.011.118-.017a1.273,1.273,0,0,0,1.02-1.245v-.555A1.268,1.268,0,0,0,826.358,596.417Zm0,2.527H782.922a2.069,2.069,0,0,1-2.068-2.065V579.184a2.069,2.069,0,0,1,2.068-2.065h32.14a2.068,2.068,0,0,1,2.065,2.065v17.8h9.23a.7.7,0,0,1,.7.7v.555A.7.7,0,0,1,826.358,598.944Z" transform="translate(-603.565 -449.691)" fill="#3f3d56"/>
    <circle id="Ellipse_28" data-name="Ellipse 28" cx="2.167" cy="2.167" r="2.167" transform="translate(193.259 136.174)" fill="#ebebeb"/>
    <path id="Path_1110" data-name="Path 1110" d="M15.079,0A15.079,15.079,0,1,1,0,15.079,15.079,15.079,0,0,1,15.079,0Z" transform="translate(19.293 71.904)" fill="#fd8b66"/>
    <path id="Path_740" data-name="Path 740" d="M249.36,636.345H245.2a1.833,1.833,0,0,0-1.831,1.831v34.659a1.833,1.833,0,0,0,1.831,1.831h4.159a1.833,1.833,0,0,0,1.831-1.831V638.177a1.833,1.833,0,0,0-1.831-1.831Z" transform="translate(-217.927 -492.635)" fill="#2f2e41"/>
    <path id="Path_741" data-name="Path 741" d="M280.55,636.345h-4.159a1.833,1.833,0,0,0-1.831,1.831v34.659a1.833,1.833,0,0,0,1.831,1.831h4.159a1.831,1.831,0,0,0,1.831-1.832V638.177a1.831,1.831,0,0,0-1.832-1.831Z" transform="translate(-240.329 -492.635)" fill="#2f2e41"/>
    <path id="Path_742" data-name="Path 742" d="M254.372,505.3a11.421,11.421,0,0,0-20.453,6.979v30.695a1.51,1.51,0,0,0,.023.279,1.971,1.971,0,0,0,1.95,1.693h18.9a1.976,1.976,0,0,0,1.972-1.972V512.276A11.34,11.34,0,0,0,254.372,505.3Z" transform="translate(-211.139 -395.327)" fill="#2f2e41"/>
    <path id="Path_743" data-name="Path 743" d="M320.218,434.218l-.016-.564a4.66,4.66,0,0,0,2.667-.6,1.732,1.732,0,0,0,.671-1.276.99.99,0,0,0-.325-.816,1.707,1.707,0,0,0-1.743-.015l-.466.214.894-6.534.558.077-.761,5.558a1.989,1.989,0,0,1,1.882.271,1.541,1.541,0,0,1,.524,1.266,2.292,2.292,0,0,1-.9,1.711A5.186,5.186,0,0,1,320.218,434.218Z" transform="translate(-273.111 -340.568)" fill="#2f2e41"/>
    <rect id="Rectangle_494" data-name="Rectangle 494" width="3.035" height="0.564" transform="translate(42.529 84.612)" fill="#2f2e41"/>
    <path id="Path_744" data-name="Path 744" d="M237.014,516.192a1.817,1.817,0,0,0-1.274-.589l-3.277-.135-.876-.037a1.834,1.834,0,0,0-1.908,1.753l-.518,12.487-.916,22.143a1.834,1.834,0,0,0,1.62,1.9c.045.006.087.009.132.011l2.508.1,1.648.068a1.829,1.829,0,0,0,1.9-1.755l.11-2.64.809-19.529.518-12.462A1.831,1.831,0,0,0,237.014,516.192Z" transform="translate(-207.063 -405.788)" fill="#fd8b66"/>
    <path id="Path_745" data-name="Path 745" d="M234.847,508.155a5.094,5.094,0,0,0-1.065-.11,5.219,5.219,0,0,0-5.213,5.212v9.58a1.839,1.839,0,0,0,.826,1.53,1.806,1.806,0,0,0,.682.27,1.754,1.754,0,0,0,.324.031h6.762a.269.269,0,0,0,.048,0,1.83,1.83,0,0,0,1.783-1.829v-9.58A5.221,5.221,0,0,0,234.847,508.155Z" transform="translate(-207.297 -400.484)" fill="#2f2e41"/>
    <path id="Path_746" data-name="Path 746" d="M309.987,538.395a2.109,2.109,0,0,1-1.043-2.51l1.6-5.1-.468-.389-12.3-10.18-8.222-6.8-1-.828a1.831,1.831,0,0,0-2.578.242l-2.651,3.207a1.828,1.828,0,0,0,.242,2.578l8.377,6.931.952.786L310.272,540.7a1.829,1.829,0,0,0,2.3.034,1.653,1.653,0,0,0,.248-.239.4.4,0,0,0,.034-.037l.335-.406Z" transform="translate(-246.32 -403.441)" fill="#fd8b66"/>
    <path id="Path_747" data-name="Path 747" d="M292.987,515.325l-7.413-6.066a5.213,5.213,0,1,0-6.6,8.067l7.413,6.066a1.83,1.83,0,0,0,2.316,0,1.514,1.514,0,0,0,.262-.259l4.283-5.232a1.813,1.813,0,0,0,.335-.623A1.841,1.841,0,0,0,292.987,515.325Z" transform="translate(-242.123 -400.508)" fill="#2f2e41"/>
    <path id="Path_748" data-name="Path 748" d="M256.486,383.567a6.194,6.194,0,0,1-1.108-4.311,3.061,3.061,0,0,1,2.7-2.611,9.479,9.479,0,0,1,2.57.3,9.644,9.644,0,0,0,2.1.136,10.424,10.424,0,0,0,4.072-1.032,9.994,9.994,0,0,0,5.369-6.292,10.5,10.5,0,0,0-1.815-9.2l.706-.187-.92,3.022a.427.427,0,0,1-.621.253,14.557,14.557,0,0,0-11.327-1.811,13.792,13.792,0,0,0-3.108,1.2c-.48.255-.908-.474-.427-.73a15.412,15.412,0,0,1,12.092-.926,14.71,14.71,0,0,1,3.2,1.542l-.621.253.92-3.022a.426.426,0,0,1,.706-.186,11.329,11.329,0,0,1,2.322,8.589,10.69,10.69,0,0,1-4.629,7.416,11.4,11.4,0,0,1-8.609,1.731,4.478,4.478,0,0,0-2.577-.04,2.226,2.226,0,0,0-1.193,1.467c-.46,1.559.323,3.038,1.122,4.334Z" transform="translate(-225.894 -294.03)" fill="#2f2e41"/>
    <path id="Path_749" data-name="Path 749" d="M396.621,533.4l-13.939-8.067a2.678,2.678,0,0,0-3.894,1.513l-4.012,12.75-1.674,5.323a2.672,2.672,0,0,0,1.321,3.178l3.088,1.6,10.076,5.227a2.671,2.671,0,0,0,1.234.3,2.721,2.721,0,0,0,.93-.166l.02-.008a2.691,2.691,0,0,0,1.55-1.544l6.458-16.835A2.665,2.665,0,0,0,396.621,533.4Zm.631,3.074L390.795,553.3a2.122,2.122,0,0,1-1.226,1.217l-.014.006a2.122,2.122,0,0,1-1.707-.1l-9.966-5.17-3.2-1.66a2.109,2.109,0,0,1-1.043-2.51l1.6-5.1,4.08-12.969a2.118,2.118,0,0,1,3.074-1.195l13.939,8.067A2.1,2.1,0,0,1,397.252,536.47Z" transform="translate(-311.017 -412.64)" fill="#3f3d56"/>
    <path id="Path_750" data-name="Path 750" d="M414.437,556.781a.844.844,0,0,1-.4-.1l-9.3-5.072a.845.845,0,0,1,.81-1.484l9.3,5.072a.845.845,0,0,1-.405,1.588Z" transform="translate(-333.509 -430.631)" fill="#fd8b66"/>
    <path id="Path_751" data-name="Path 751" d="M408.437,569.781a.844.844,0,0,1-.4-.1l-9.3-5.072a.845.845,0,0,1,.809-1.484l9.3,5.072a.845.845,0,0,1-.406,1.588Z" transform="translate(-329.2 -439.968)" fill="#fd8b66"/>
    <path id="Path_752" data-name="Path 752" d="M403.437,583.781a.841.841,0,0,1-.4-.1l-9.3-5.072a.845.845,0,1,1,.809-1.484l9.3,5.072a.845.845,0,0,1-.405,1.587Z" transform="translate(-325.609 -450.023)" fill="#fd8b66"/>
    <g id="Group_2227" data-name="Group 2227" transform="translate(163.358 1)">
      <path id="Path_753" data-name="Path 753" d="M673.223,180.879H634.135a2.122,2.122,0,0,1-2.119-2.119V129.311a2.122,2.122,0,0,1,2.119-2.119h39.088a2.122,2.122,0,0,1,2.119,2.119V178.76A2.122,2.122,0,0,1,673.223,180.879Zm-39.088-53.216a1.65,1.65,0,0,0-1.648,1.648V178.76a1.65,1.65,0,0,0,1.648,1.648h39.088a1.65,1.65,0,0,0,1.648-1.648V129.311a1.65,1.65,0,0,0-1.648-1.648Z" transform="translate(-632.016 -127.192)" fill="#3f3d56"/>
      <path id="Path_754" data-name="Path 754" d="M672.727,180.266h-8.6a1.061,1.061,0,0,1-1.06-1.06V169.053a1.061,1.061,0,0,1,1.06-1.06h8.6a1.061,1.061,0,0,1,1.06,1.06v10.153A1.061,1.061,0,0,1,672.727,180.266Z" transform="translate(-654.315 -156.497)" fill="#f2f2f2"/>
      <path id="Path_755" data-name="Path 755" d="M732.063,196.98h-8.6a1.061,1.061,0,0,1-1.06-1.06V185.767a1.061,1.061,0,0,1,1.06-1.06h8.6a1.061,1.061,0,0,1,1.06,1.06v10.153A1.061,1.061,0,0,1,732.063,196.98Z" transform="translate(-696.933 -168.502)" fill="#ccc"/>
      <path id="Path_756" data-name="Path 756" d="M684.427,247.959h-8.6a1.061,1.061,0,0,1-1.06-1.06V236.746a1.061,1.061,0,0,1,1.06-1.06h8.6a1.061,1.061,0,0,1,1.06,1.06V246.9A1.061,1.061,0,0,1,684.427,247.959Z" transform="translate(-662.719 -205.117)" fill="#ff5722"/>
    </g>
    <g id="Group_2229" data-name="Group 2229" transform="translate(70.04 39.264)">
      <path id="Path_757" data-name="Path 757" d="M487.27,266.959a2.142,2.142,0,0,0-1.958-1.31H446.224a2.12,2.12,0,0,0-2.119,2.119v49.449a2.12,2.12,0,0,0,2.119,2.119h39.088a2.122,2.122,0,0,0,2.119-2.119V267.768A2.08,2.08,0,0,0,487.27,266.959Zm-.31,50.257a1.65,1.65,0,0,1-1.648,1.648H446.224a1.649,1.649,0,0,1-1.648-1.648V267.768a1.65,1.65,0,0,1,1.648-1.648h39.088a1.657,1.657,0,0,1,1.53,1.037,1.841,1.841,0,0,1,.062.186,1.632,1.632,0,0,1,.056.425Z" transform="translate(-444.105 -265.649)" fill="#3f3d56"/>
      <g id="Group_2228" data-name="Group 2228" transform="translate(7.375 7.163)">
        <path id="Path_758" data-name="Path 758" d="M535.936,302.283H524.163a.942.942,0,0,1,0-1.884h11.773a.942.942,0,0,1,0,1.884Z" transform="translate(-508.305 -297.771)" fill="#3f3d56"/>
        <path id="Path_759" data-name="Path 759" d="M535.936,319.833H524.163a.942.942,0,0,1,0-1.884h11.773a.942.942,0,0,1,0,1.884Z" transform="translate(-508.305 -310.376)" fill="#3f3d56"/>
        <path id="Path_760" data-name="Path 760" d="M480.49,303.343h-8.6a1.061,1.061,0,0,1-1.06-1.06V292.13a1.061,1.061,0,0,1,1.06-1.06h8.6a1.061,1.061,0,0,1,1.06,1.06v10.153A1.061,1.061,0,0,1,480.49,303.343Z" transform="translate(-470.673 -291.071)" fill="#fd8b66"/>
        <path id="Path_761" data-name="Path 761" d="M497.832,355.769H471.223a.942.942,0,0,1,0-1.884h26.608a.942.942,0,1,1,0,1.884Z" transform="translate(-470.282 -336.186)" fill="#ccc"/>
        <path id="Path_762" data-name="Path 762" d="M497.832,373.319H471.223a.942.942,0,0,1,0-1.884h26.608a.942.942,0,0,1,0,1.884Z" transform="translate(-470.282 -348.792)" fill="#ccc"/>
        <path id="Path_763" data-name="Path 763" d="M497.832,390.869H471.223a.942.942,0,0,1,0-1.884h26.608a.942.942,0,1,1,0,1.884Z" transform="translate(-470.282 -361.397)" fill="#ccc"/>
        <path id="Path_764" data-name="Path 764" d="M497.832,408.419H471.223a.942.942,0,0,1,0-1.884h26.608a.942.942,0,0,1,0,1.884Z" transform="translate(-470.282 -374.002)" fill="#ccc"/>
        <path id="Path_765" data-name="Path 765" d="M497.832,425.969H471.223a.942.942,0,0,1,0-1.884h26.608a.942.942,0,0,1,0,1.884Z" transform="translate(-470.282 -386.607)" fill="#ccc"/>
      </g>
    </g>
    <rect id="Rectangle_495" data-name="Rectangle 495" width="30.767" height="0.471" transform="translate(132.512 80.555) rotate(-43.593)" fill="#e6e6e6"/>
    <path id="Path_766" data-name="Path 766" d="M469.569,279.662l2.828-.033-.005-.471-2.322.028.142-2.318-.471-.028Z" transform="translate(-337.264 -198.585)" fill="#e6e6e6"/>
    <path id="Path_767" data-name="Path 767" d="M544.073,209.063l-.172,2.823-.471-.028.142-2.318-2.322.028-.005-.471Z" transform="translate(-388.745 -149.905)" fill="#e6e6e6"/>
    <circle id="Ellipse_30" data-name="Ellipse 30" cx="2.59" cy="2.59" r="2.59" transform="translate(141.227 67.528)" fill="#e6e6e6"/>
    <rect id="Rectangle_496" data-name="Rectangle 496" width="30.767" height="0.471" transform="translate(102.646 30.402) rotate(-43.593)" fill="#e6e6e6"/>
    <path id="Path_768" data-name="Path 768" d="M363.569,101.662l2.828-.033-.005-.471-2.322.028.142-2.318-.471-.028Z" transform="translate(-261.131 -70.738)" fill="#e6e6e6"/>
    <path id="Path_769" data-name="Path 769" d="M438.073,31.063l-.172,2.823-.471-.028.142-2.318-2.322.028-.005-.471Z" transform="translate(-312.611 -22.058)" fill="#e6e6e6"/>
    <circle id="Ellipse_31" data-name="Ellipse 31" cx="2.59" cy="2.59" r="2.59" transform="translate(111.36 17.375)" fill="#e6e6e6"/>
    <rect id="Rectangle_497" data-name="Rectangle 497" width="0.564" height="2.536" transform="translate(213.554 147.024)" fill="#3f3d56"/>
  </g>
</svg>
