<svg id="Layer_31" data-name="Layer 31" xmlns="http://www.w3.org/2000/svg" width="20.51" height="26.524" viewBox="0 0 20.51 26.524">
  <path id="Path_778" data-name="Path 778" d="M25.52,26.2H6.723A.849.849,0,0,1,6,25.78a.911.911,0,0,1-.035-.86,16.5,16.5,0,0,0,1.615-7.073V14.708a8.7,8.7,0,0,1,8.544-8.841,8.7,8.7,0,0,1,8.544,8.841v3.121A16.5,16.5,0,0,0,26.28,24.9a.911.911,0,0,1-.023.873A.849.849,0,0,1,25.52,26.2ZM8.047,24.434H24.2a18.35,18.35,0,0,1-1.239-6.6V14.708a6.957,6.957,0,0,0-6.835-7.073,6.957,6.957,0,0,0-6.835,7.073v3.121a18.35,18.35,0,0,1-1.239,6.6Z" transform="translate(-5.871 -3.214)" fill="#fff"/>
  <path id="Path_779" data-name="Path 779" d="M20.405,41.972a4.348,4.348,0,0,1-4.272-4.421.855.855,0,1,1,1.709,0,2.7,2.7,0,0,0,.752,1.874,2.568,2.568,0,0,0,3.623,0,.838.838,0,0,1,1.213,0,.91.91,0,0,1,0,1.255A4.2,4.2,0,0,1,20.405,41.972Z" transform="translate(-10.155 -15.447)" fill="#fff"/>
  <path id="Path_780" data-name="Path 780" d="M22.854,5.887A.87.87,0,0,1,22,5V2.351a.855.855,0,1,1,1.709,0V5A.87.87,0,0,1,22.854,5.887Z" transform="translate(-12.604 -1.467)" fill="#fff"/>
  <path id="Path_781" data-name="Path 781" d="M36.909,5A1.739,1.739,0,0,1,35.2,3.235a1.71,1.71,0,1,1,3.418,0A1.739,1.739,0,0,1,36.909,5Zm0-1.768Zm0,0Zm0,0Zm0,0Zm0,0Zm0,0Zm0,0Zm0,0Z" transform="translate(-18.114 -1.467)" fill="#fff"/>
</svg>
