<svg id="project" xmlns="http://www.w3.org/2000/svg" width="24.02" height="24.02" viewBox="0 0 24.02 24.02">
  <path id="Path_1117" data-name="Path 1117" d="M32,384h.775v.775H32Zm0,0" transform="translate(-30.45 -365.404)"/>
  <path id="Path_1118" data-name="Path 1118" d="M64,384h.775v.775H64Zm0,0" transform="translate(-60.901 -365.404)"/>
  <path id="Path_1119" data-name="Path 1119" d="M96,384h.775v.775H96Zm0,0" transform="translate(-91.351 -365.404)"/>
  <path id="Path_1120" data-name="Path 1120" d="M32,416h6.586v.775H32Zm0,0" transform="translate(-30.45 -395.854)"/>
  <path id="Path_1121" data-name="Path 1121" d="M32,448h6.586v.775H32Zm0,0" transform="translate(-30.45 -426.304)"/>
  <path id="Path_1122" data-name="Path 1122" d="M184,416h5.811v.775H184Zm0,0" transform="translate(-175.089 -395.854)"/>
  <path id="Path_1123" data-name="Path 1123" d="M184,448h5.811v.775H184Zm0,0" transform="translate(-175.089 -426.304)"/>
  <path id="Path_1124" data-name="Path 1124" d="M56.318,113.449,56.077,112H53.1l-.242,1.449a5.3,5.3,0,0,0-.677.279l-1.193-.854-2.108,2.108.853,1.194a5.456,5.456,0,0,0-.279.677L48,117.1v2.981l1.449.241a5.4,5.4,0,0,0,.279.677l-.853,1.194,2.108,2.108,1.194-.853a5.32,5.32,0,0,0,.677.279l.241,1.449h2.981l.242-1.449a5.278,5.278,0,0,0,.677-.279l1.193.853L60.3,122.19,59.445,121a5.455,5.455,0,0,0,.279-.677l1.449-.241V117.1l-1.449-.241a5.4,5.4,0,0,0-.279-.677l.853-1.194-2.108-2.109L57,113.728A5.314,5.314,0,0,0,56.318,113.449Zm1.787.438,1.179,1.18-.752,1.053.119.214a4.62,4.62,0,0,1,.4.97l.068.235,1.278.213v1.668l-1.278.213-.068.235a4.62,4.62,0,0,1-.4.97l-.119.214.752,1.053-1.179,1.18-1.053-.752-.214.119a4.617,4.617,0,0,1-.97.4l-.236.067L55.42,124.4H53.752l-.213-1.278-.235-.068a4.64,4.64,0,0,1-.97-.4l-.214-.119-1.053.752-1.179-1.18.752-1.054-.119-.214a4.62,4.62,0,0,1-.4-.97l-.068-.235-1.278-.213v-1.668l1.278-.213.068-.235a4.62,4.62,0,0,1,.4-.97l.119-.214-.752-1.053,1.179-1.18,1.053.752.214-.119a4.616,4.616,0,0,1,.97-.4l.235-.068.213-1.278H55.42l.213,1.278.235.068a4.64,4.64,0,0,1,.97.4l.214.119Zm0,0" transform="translate(-45.675 -106.576)"/>
  <path id="Path_1125" data-name="Path 1125" d="M138.325,204.649A2.325,2.325,0,1,0,136,202.325,2.327,2.327,0,0,0,138.325,204.649Zm0-3.874a1.55,1.55,0,1,1-1.55,1.55A1.551,1.551,0,0,1,138.325,200.775Zm0,0" transform="translate(-129.414 -190.314)"/>
  <path id="Path_1126" data-name="Path 1126" d="M22.083,5.424a1.937,1.937,0,1,0,0-3.874H17.821V0H4.1L0,4.1V24.02H17.821V5.424Zm-2.325-3.1h.775V4.649h-.775Zm-.775.775H12.4V2.325h6.586Zm-7.361,1.27-1.543-.882L11.623,2.6Zm.775-.495h6.586v.775H12.4Zm10.848-.387a1.164,1.164,0,0,1-1.162,1.162h-.775V2.325h.775A1.164,1.164,0,0,1,23.245,3.487ZM3.874,1.323V3.874H1.323ZM17.047,23.245H.775V4.649H4.649V.775h12.4V1.55h-5.14L8.517,3.487l3.39,1.937h5.14Zm0,0"/>
  <path id="Path_1127" data-name="Path 1127" d="M440,480h.775v.775H440Zm0,0" transform="translate(-418.692 -456.755)"/>
  <path id="Path_1128" data-name="Path 1128" d="M440,448h.775v.775H440Zm0,0" transform="translate(-418.692 -426.304)"/>
  <path id="Path_1129" data-name="Path 1129" d="M376.457,126h1.528v6.586h.775v-7.361h-.8l1.184-1.658,1.184,1.658h-.8v12.01h.775V126h1.528l-2.69-3.766Zm0,0" transform="translate(-358.226 -116.311)"/>
  <path id="Path_1130" data-name="Path 1130" d="M408,352h.775v6.974H408Zm0,0" transform="translate(-388.241 -334.953)"/>
  <path id="Path_1131" data-name="Path 1131" d="M176,136h.775v.775H176Zm0,0" transform="translate(-167.477 -129.414)"/>
  <path id="Path_1132" data-name="Path 1132" d="M99.148,163.7l.548-.548.548.548-.548.548Zm0,0" transform="translate(-94.347 -155.248)"/>
  <path id="Path_1133" data-name="Path 1133" d="M72,240h.775v.775H72Zm0,0" transform="translate(-68.513 -228.377)"/>
  <path id="Path_1134" data-name="Path 1134" d="M99.145,310.767l.548-.548.548.548-.548.548Zm0,0" transform="translate(-94.343 -295.195)"/>
  <path id="Path_1135" data-name="Path 1135" d="M176,344h.775v.775H176Zm0,0" transform="translate(-167.477 -327.341)"/>
  <path id="Path_1136" data-name="Path 1136" d="M246.219,310.774l.548-.548.548.548-.548.548Zm0,0" transform="translate(-234.295 -295.203)"/>
  <path id="Path_1137" data-name="Path 1137" d="M280,240h.775v.775H280Zm0,0" transform="translate(-266.44 -228.377)"/>
  <path id="Path_1138" data-name="Path 1138" d="M246.223,163.7l.548-.548.548.548-.548.548Zm0,0" transform="translate(-234.299 -155.251)"/>
  <path id="Path_1139" data-name="Path 1139" d="M134.1,168.848l.484.605a3.064,3.064,0,0,1,1.933-.679,3.1,3.1,0,0,1,3.1,3.1,3.063,3.063,0,0,1-.679,1.933l.605.484a3.833,3.833,0,0,0,.849-2.417A3.879,3.879,0,0,0,136.514,168,3.832,3.832,0,0,0,134.1,168.848Zm0,0" transform="translate(-127.604 -159.864)"/>
  <path id="Path_1140" data-name="Path 1140" d="M107.874,203.606a3.1,3.1,0,0,1-3.1-3.1,3.063,3.063,0,0,1,.679-1.933l-.605-.484a3.833,3.833,0,0,0-.849,2.417,3.879,3.879,0,0,0,3.874,3.874,3.832,3.832,0,0,0,2.417-.848l-.484-.605A3.064,3.064,0,0,1,107.874,203.606Zm0,0" transform="translate(-98.963 -188.497)"/>
</svg>
