<svg id="undraw_Questions_re_1fy7" xmlns="http://www.w3.org/2000/svg" width="324" height="228.33" viewBox="0 0 324 228.33">
  <circle id="Ellipse_71" data-name="Ellipse 71" cx="17.645" cy="17.645" r="17.645" transform="translate(147.829 192.557)" fill="#3f51b5"/>
  <path id="Path_877" data-name="Path 877" d="M524.769,408.132c9.871-2.965,20.366-6.056,28.194-13.1,7-6.3,11.719-15.914,8.82-25.359-2.892-9.425-11.555-15.71-20.5-18.836A84.1,84.1,0,0,0,525.6,347.3c-5.767-.84-11.56-1.528-17.349-2.19q-35.166-4.022-70.6-4.914c-11.655-.294-23.308-.286-34.964-.117-10.41.151-21.374.147-31.031-4.277-7.51-3.441-14.326-9.7-16.418-17.926-2.415-9.5,2.04-19.165,8.431-26.042a68.267,68.267,0,0,1,11.368-9.481c4.406-3.043,8.966-5.871,13.625-8.511a189.731,189.731,0,0,1,28.679-13.221c4.889-1.778,9.85-3.311,14.855-4.726a127.119,127.119,0,0,0,12.549-4.019c7.9-3.147,15.4-8.477,17.413-17.216,1.9-8.282-1.305-17.273-6.929-23.425-6.507-7.118-16.317-10.238-25.723-10.743-10.559-.567-20.875,2.076-30.8,5.43-10.586,3.577-20.943,7.69-31.752,10.588a213.639,213.639,0,0,1-32.679,6.075c-5.4.575-10.967,1.225-16.4.784-4.554-.369-9.085-1.708-12.441-4.94a12.3,12.3,0,0,1-4-10.6c.107-.73,1.216-.42,1.11.306-.717,4.893,2.608,9.4,6.707,11.71,4.737,2.669,10.5,2.673,15.773,2.367a206.3,206.3,0,0,0,33.952-4.908,272.854,272.854,0,0,0,32.107-9.911c10.033-3.633,20.29-7.179,31.009-7.966,9.3-.683,19.084.672,27.186,5.532a30.074,30.074,0,0,1,14.025,19.57,22.683,22.683,0,0,1-6.674,21.6c-6.261,5.771-14.845,8.239-22.845,10.511A209.292,209.292,0,0,0,404.1,267.272a186.356,186.356,0,0,0-27.925,15.7c-8.533,5.831-16.955,13.168-19.653,23.571a21.715,21.715,0,0,0,1.079,14.562,26.611,26.611,0,0,0,8.539,10.134c8.562,6.3,19.353,7.594,29.694,7.722,11.615.145,23.231-.247,34.85-.057q35.519.583,70.893,4.324,8.864.938,17.705,2.074a160.1,160.1,0,0,1,15.834,2.568c9.268,2.151,18.287,6.288,24.047,14.146a22.369,22.369,0,0,1,1.905,24.46c-4.424,8.7-12.709,14.24-21.509,17.877a152.6,152.6,0,0,1-14.481,4.889.576.576,0,0,1-.306-1.11Z" transform="translate(-253.885 -181.277)" fill="#f2f2f2"/>
  <circle id="Ellipse_72" data-name="Ellipse 72" cx="9.206" cy="9.206" r="9.206" transform="translate(39.084 17.453)" fill="#f2f2f2"/>
  <circle id="Ellipse_73" data-name="Ellipse 73" cx="9.206" cy="9.206" r="9.206" transform="translate(102.95 34.906)" fill="#f2f2f2"/>
  <circle id="Ellipse_74" data-name="Ellipse 74" cx="9.206" cy="9.206" r="9.206" transform="translate(157.035)" fill="#f2f2f2"/>
  <circle id="Ellipse_75" data-name="Ellipse 75" cx="9.206" cy="9.206" r="9.206" transform="translate(190.79 39.125)" fill="#f2f2f2"/>
  <circle id="Ellipse_76" data-name="Ellipse 76" cx="9.206" cy="9.206" r="9.206" transform="translate(145.144 84.388)" fill="#f2f2f2"/>
  <circle id="Ellipse_77" data-name="Ellipse 77" cx="9.206" cy="9.206" r="9.206" transform="translate(87.223 106.252)" fill="#f2f2f2"/>
  <circle id="Ellipse_78" data-name="Ellipse 78" cx="9.206" cy="9.206" r="9.206" transform="translate(148.596 140.39)" fill="#f2f2f2"/>
  <circle id="Ellipse_79" data-name="Ellipse 79" cx="9.206" cy="9.206" r="9.206" transform="translate(214.572 159.569)" fill="#f2f2f2"/>
  <circle id="Ellipse_80" data-name="Ellipse 80" cx="9.206" cy="9.206" r="9.206" transform="translate(291.671 155.35)" fill="#f2f2f2"/>
  <path id="Path_878" data-name="Path 878" d="M522.889,220.37a51.061,51.061,0,0,0-50.547,50.178c0,.255-.005,2.045-.005,4.386a12.945,12.945,0,0,0,12.943,12.944h0a12.952,12.952,0,0,0,12.95-12.961c0-1.6,0-2.7,0-2.765a24.549,24.549,0,1,1,37.79,20.667l0,.005s-18.423,11.86-24.039,28.13h0a36.061,36.061,0,0,0-1.486,10.268c0,1.429.084,13.932.246,24.08a13.343,13.343,0,0,0,13.345,13.127h0A13.347,13.347,0,0,0,537.441,355c-.056-9.294-.087-20.116-.087-20.9,0-9.99,9.638-19.944,17.554-26.435a53.243,53.243,0,0,0,18.311-29.152,33.278,33.278,0,0,0,.959-7.224,50.92,50.92,0,0,0-51.288-50.919Z" transform="translate(-359.306 -194.286)" fill="#3f51b5"/>
  <path id="Path_879" data-name="Path 879" d="M501.206,746.163H178.119a.457.457,0,0,1,0-.914H501.206a.457.457,0,0,1,0,.914Z" transform="translate(-177.662 -517.833)" fill="#3f3d56"/>
  <circle id="Ellipse_81" data-name="Ellipse 81" cx="11.507" cy="11.507" r="11.507" transform="translate(229.553 81.701)" fill="#2f2e41"/>
  <path id="Path_880" data-name="Path 880" d="M561.86,552.98h-4.7l-2.237-18.139h6.941Z" transform="translate(-342.064 -329.687)" fill="#a0616a"/>
  <path id="Path_881" data-name="Path 881" d="M542.819,578.626h9.069v5.71h-14.78A5.71,5.71,0,0,1,542.819,578.626Z" transform="translate(-331.085 -356.677)" fill="#2f2e41"/>
  <path id="Path_882" data-name="Path 882" d="M656.86,552.98h-4.7l-2.237-18.139h6.941Z" transform="translate(-400.624 -329.687)" fill="#a0616a"/>
  <path id="Path_883" data-name="Path 883" d="M637.819,578.626h9.069v5.71h-14.78A5.71,5.71,0,0,1,637.819,578.626Z" transform="translate(-389.645 -356.677)" fill="#2f2e41"/>
  <circle id="Ellipse_82" data-name="Ellipse 82" cx="9.421" cy="9.421" r="9.421" transform="translate(229.89 85.941)" fill="#a0616a"/>
  <path id="Path_884" data-name="Path 884" d="M762.06,461.57l4.215-9.685a12.038,12.038,0,0,0-2.666-13.655,12.22,12.22,0,0,0-1.178-1.024,11.866,11.866,0,0,0-7.284-2.52,12.343,12.343,0,0,0-5.14,1.143c-.138.061-.272.127-.411.192-.265.127-.526.265-.779.407a12.151,12.151,0,0,0-6.022,9.16l-1.86,15.589c-.468,1.224-17.161,45.412-11.323,79.148a1.713,1.713,0,0,0,1.465,1.408l5.919.806a1.725,1.725,0,0,0,1.922-1.354l9.931-47.338a1.344,1.344,0,0,1,2.608-.088l14.031,49.781a1.715,1.715,0,0,0,1.653,1.258,1.963,1.963,0,0,0,.334-.031l7.23-1.392a1.715,1.715,0,0,0,1.393-1.845C775.037,529.679,769.39,470.327,762.06,461.57Z" transform="translate(-517.133 -326.394)" fill="#2f2e41"/>
  <path id="Path_885" data-name="Path 885" d="M706.06,415.869a3.857,3.857,0,0,0,4.064,4.3l5.266,12.655,3.983-5.9L713.762,415.8a3.878,3.878,0,0,0-7.7.065Z" transform="translate(-503.361 -312.667)" fill="#a0616a"/>
  <path id="Path_886" data-name="Path 886" d="M793.177,513.053a3.857,3.857,0,0,0,3.232-4.953l11.08-8.07-6.671-2.5-9.5,8.046a3.878,3.878,0,0,0,1.857,7.475Z" transform="translate(-554.388 -365.134)" fill="#a0616a"/>
  <path id="Path_887" data-name="Path 887" d="M731.218,457.27a6.542,6.542,0,0,1-1.265-.125,6.254,6.254,0,0,1-4.583-3.689l-7.378-9a1.726,1.726,0,0,1,.426-2.562l5.249-3.249a1.726,1.726,0,0,1,2.384.572l5.2,8.567,9.958-7.36a3.729,3.729,0,0,1,4.338,5.969l-9.939,9.067A6.234,6.234,0,0,1,731.218,457.27Z" transform="translate(-510.492 -328.678)" fill="#2f2e41"/>
  <path id="Path_888" data-name="Path 888" d="M812.979,475.32h-.041a1.729,1.729,0,0,1-1.27-.6L807,469.273a1.726,1.726,0,0,1,.353-2.56l8.739-5.826-7.916-9.518a3.729,3.729,0,0,1,5.71-4.673l9.621,9.4a6.339,6.339,0,0,1-1.41,10.334l-7.864,8.344A1.729,1.729,0,0,1,812.979,475.32Z" transform="translate(-565.344 -333.199)" fill="#2f2e41"/>
  <path id="Path_889" data-name="Path 889" d="M786.932,446.914a1.772,1.772,0,0,1-.224-.014,1.711,1.711,0,0,1-1.423-1.177l-3.507-10.751a1.182,1.182,0,0,1,.611-1.429l.114-.054c.1-.049.205-.1.31-.144a12.5,12.5,0,0,1,5.218-1.16,12.017,12.017,0,0,1,6.583,1.978,1.2,1.2,0,0,1,.346,1.647l-6.578,10.306A1.709,1.709,0,0,1,786.932,446.914Z" transform="translate(-550.016 -324.853)" fill="#e6e6e6"/>
  <circle id="Ellipse_83" data-name="Ellipse 83" cx="3.765" cy="3.765" r="3.765" transform="translate(246.367 80.54)" fill="#2f2e41"/>
  <path id="Path_890" data-name="Path 890" d="M780.084,361.365h0a9.973,9.973,0,0,0-9.973,9.973v4.219h5.19l2.482-4.219.745,4.219h15.749l-4.219-4.219A9.973,9.973,0,0,0,780.084,361.365Z" transform="translate(-542.86 -281.199)" fill="#2f2e41"/>
  <path id="Path_891" data-name="Path 891" d="M834.809,358.937a5.811,5.811,0,0,1,6.322-3.988c2.4.4,4.3,2.33,5.427,4.484a44.169,44.169,0,0,1,2.413,6.877,12.455,12.455,0,0,0,3.756,6.131c1.919,1.5,4.863,1.9,6.747.363a7.717,7.717,0,0,1-14.375,2.755,16.691,16.691,0,0,1-1.546-5.85,12.785,12.785,0,0,0-1.865-5.731c-1.187-1.646-3.409-2.721-5.295-1.971Z" transform="translate(-582.741 -277.21)" fill="#2f2e41"/>
  <path id="Path_892" data-name="Path 892" d="M488.644,315.629h0A12.945,12.945,0,0,1,475.7,302.686c0-2.343,0-4.133.005-4.387a50.443,50.443,0,0,1,5.891-22.98,50.557,50.557,0,0,0-9.727,29.117c0,.255-.005,2.045-.005,4.386a12.945,12.945,0,0,0,12.943,12.944h0a12.955,12.955,0,0,0,12.462-9.432A12.9,12.9,0,0,1,488.644,315.629Z" transform="translate(-359.015 -228.158)" fill="#3f3d56"/>
  <path id="Path_893" data-name="Path 893" d="M574.5,281.57a24.551,24.551,0,0,1,21.35,34.3,24.548,24.548,0,1,0-41.206-25.694A24.5,24.5,0,0,1,574.5,281.57Z" transform="translate(-410.044 -228.211)" fill="#3f3d56"/>
  <path id="Path_894" data-name="Path 894" d="M588.791,506.283h0a13.344,13.344,0,0,1-13.345-13.13c-.162-10.145-.246-22.648-.246-24.077a36.057,36.057,0,0,1,1.486-10.268h0a36.449,36.449,0,0,1,2.107-4.872,42.21,42.21,0,0,0-5.943,11.009h0a36.054,36.054,0,0,0-1.486,10.268c0,1.429.084,13.932.246,24.08a13.343,13.343,0,0,0,13.345,13.127h0a13.349,13.349,0,0,0,12.812-9.606,13.3,13.3,0,0,1-8.976,3.469Z" transform="translate(-420.348 -338.261)" fill="#3f3d56"/>
  <path id="Path_895" data-name="Path 895" d="M126.539,553.435h4.7l2.237-18.139h-6.941Z" transform="translate(-78.001 -329.967)" fill="#ffb8b8"/>
  <path id="Path_896" data-name="Path 896" d="M0,0H14.78V5.71H5.71A5.71,5.71,0,0,1,0,0H0Z" transform="translate(62.309 227.834) rotate(179.997)" fill="#2f2e41"/>
  <path id="Path_897" data-name="Path 897" d="M82.539,553.435h4.7L89.479,535.3H82.538Z" transform="translate(-50.878 -329.967)" fill="#ffb8b8"/>
  <path id="Path_898" data-name="Path 898" d="M0,0H14.78V5.71H5.71A5.71,5.71,0,0,1,0,0H0Z" transform="translate(45.432 227.834) rotate(179.997)" fill="#2f2e41"/>
  <path id="Path_899" data-name="Path 899" d="M260.805,619.279l-4.593-.242a1.793,1.793,0,0,1-1.695-1.905l5.49-60.784,25.282,6.822,2.436-.665-7.617,53.81a1.8,1.8,0,0,1-1.672,1.513l-4.952.231a1.793,1.793,0,0,1-1.892-1.839l.9-32.3a.6.6,0,0,0-1.183-.138l-8.652,34.067a1.782,1.782,0,0,1-1.753,1.429C260.87,619.282,260.838,619.281,260.805,619.279Z" transform="translate(-225.035 -401.39)" fill="#2f2e41"/>
  <circle id="Ellipse_84" data-name="Ellipse 84" cx="9.421" cy="9.421" r="9.421" transform="translate(39.962 86.381)" fill="#ffb8b8"/>
  <path id="Path_900" data-name="Path 900" d="M265.485,450.3l1.036,22.35.375,8.131a1.781,1.781,0,0,0,1.179,1.6l24.294,8.8a1.715,1.715,0,0,0,.614.108,1.781,1.781,0,0,0,1.789-1.837l-1-40.186a14.166,14.166,0,0,0-11.793-13.685c-.235-.036-.474-.072-.713-.1a13.9,13.9,0,0,0-11.187,3.621,14.283,14.283,0,0,0-4.6,11.2Z" transform="translate(-231.788 -326.819)" fill="#ccc"/>
  <path id="Path_901" data-name="Path 901" d="M349.306,541.547a3.86,3.86,0,0,1-2.059-5.841l-8.238-10.955,7.109-.44,6.734,10.471a3.878,3.878,0,0,1-3.545,6.765Z" transform="translate(-277.119 -381.642)" fill="#ffb8b8"/>
  <path id="Path_902" data-name="Path 902" d="M328.64,489.117a1.782,1.782,0,0,1-.975-.966l-12.412-29.572a4.781,4.781,0,1,1,8.816-3.7l12.412,29.572a1.8,1.8,0,0,1-.959,2.347l-5.51,2.313A1.78,1.78,0,0,1,328.64,489.117Z" transform="translate(-262.246 -337.035)" fill="#ccc"/>
  <path id="Path_903" data-name="Path 903" d="M298.167,507.836l11.921-22.826a1.871,1.871,0,0,1,2.522-.792l17.3,9.037a1.871,1.871,0,0,1,.792,2.522L318.784,518.6a1.871,1.871,0,0,1-2.522.791l-17.3-9.037A1.871,1.871,0,0,1,298.167,507.836Z" transform="translate(-251.813 -356.797)" fill="#3f3d56"/>
  <path id="Path_904" data-name="Path 904" d="M291.4,504.017a3.86,3.86,0,0,0-5.952-1.711l-11.422-7.577L274,501.851l10.85,6.1a3.878,3.878,0,0,0,6.544-3.938Z" transform="translate(-237.05 -363.406)" fill="#ffb8b8"/>
  <path id="Path_905" data-name="Path 905" d="M259.487,474.375l-9.335-7.395a6.583,6.583,0,0,1-3-10.409l8.476-11.108a3.873,3.873,0,0,1,6.571,3.945l-6.706,10.97,9.856,4.675a1.793,1.793,0,0,1,.747,2.577l-3.978,6.3a1.8,1.8,0,0,1-1.215.81l-.03,0A1.8,1.8,0,0,1,259.487,474.375Z" transform="translate(-219.58 -332.163)" fill="#ccc"/>
  <path id="Path_906" data-name="Path 906" d="M280.4,387.111a.819.819,0,0,1,.712-1.081,1.891,1.891,0,0,1,1.333.658,5.307,5.307,0,0,0,1.178,1.012,1.014,1.014,0,0,0,1.334-.241,1.855,1.855,0,0,0-.071-1.44,14.157,14.157,0,0,1-.625-3.748,6.6,6.6,0,0,1,.944-4.008,5.3,5.3,0,0,1,4.544-1.932,30.532,30.532,0,0,1,5.1.9,1.715,1.715,0,0,0,1.669-.28,2.152,2.152,0,0,0,.087-1.919,13.331,13.331,0,0,0-2.02-4.815,7.25,7.25,0,0,0-4.626-2.6,11.1,11.1,0,0,0-5.164.586,13.845,13.845,0,0,0-6.783,4.725,11.214,11.214,0,0,0-2.14,8.285,10.229,10.229,0,0,0,3.792,6.465Z" transform="translate(-238.138 -285)" fill="#2f2e41"/>
  <path id="Path_907" data-name="Path 907" d="M576.763,691.082a17.642,17.642,0,0,1-6.548-27.422,17.644,17.644,0,1,0,24,25.494A17.633,17.633,0,0,1,576.763,691.082Z" transform="translate(-415.177 -467.539)" fill="#3f3d56"/>
</svg>
