<svg xmlns="http://www.w3.org/2000/svg" width="23" height="23" viewBox="0 0 23 23">
  <g id="iconfinder_globe_172473" transform="translate(0.139 0.35)">
    <path id="Path_1116" data-name="Path 1116" d="M0,0H22V22H0Z" transform="translate(0.361 0.15)" fill="none"/>
    <circle id="Ellipse_97" data-name="Ellipse 97" cx="11" cy="11" r="11" transform="translate(0.361 0.15)" fill="none" stroke="#fff" stroke-linecap="round" stroke-miterlimit="10" stroke-width="1"/>
    <ellipse id="Ellipse_98" data-name="Ellipse 98" cx="5.5" cy="11" rx="5.5" ry="11" transform="translate(5.361 0.15)" fill="none" stroke="#fff" stroke-linecap="round" stroke-miterlimit="10" stroke-width="1"/>
    <path id="Path_1112" data-name="Path 1112" d="M6.365,37.985A16.432,16.432,0,0,1,14.7,36a16.553,16.553,0,0,1,8.252,1.934" transform="translate(-3.518 -19.9)" fill="none" stroke="#fff" stroke-miterlimit="10" stroke-width="1"/>
    <path id="Path_1113" data-name="Path 1113" d="M23.135,9.563A16.437,16.437,0,0,1,14.8,11.547,16.555,16.555,0,0,1,6.549,9.613" transform="translate(-3.62 -5.286)" fill="none" stroke="#fff" stroke-miterlimit="10" stroke-width="1"/>
    <line id="Line_37" data-name="Line 37" x2="22" transform="translate(0.361 11.15)" fill="none" stroke="#fff" stroke-miterlimit="10" stroke-width="1"/>
    <line id="Line_38" data-name="Line 38" y2="22" transform="translate(11.361 0.15)" fill="none" stroke="#fff" stroke-miterlimit="10" stroke-width="1"/>
  </g>
</svg>
