<svg id="Online_class_group_session" xmlns="http://www.w3.org/2000/svg" width="24.223" height="24.531" viewBox="0 0 24.223 24.531">
  <path id="Path_18" data-name="Path 18" d="M229.818,359.872a.837.837,0,1,0,.809.837A.823.823,0,0,0,229.818,359.872Zm0,1.168a.332.332,0,1,1,.32-.332A.326.326,0,0,1,229.818,361.041Z" transform="translate(-218.215 -342.359)" fill="#fff"/>
  <path id="Path_19" data-name="Path 19" d="M216.712,206.2a.213.213,0,0,0,.2-.03.23.23,0,0,0,.092-.185v-1.379a.23.23,0,0,0-.092-.185.214.214,0,0,0-.2-.03l-.71.25v-.284a.224.224,0,0,0-.22-.227h-1.766a.581.581,0,0,0-.571.59v1.129a.581.581,0,0,0,.571.59h1.766a.224.224,0,0,0,.22-.227v-.261Zm-.7-1.082.555-.2v.744l-.555-.2Zm-.445.866h-1.546a.134.134,0,0,1-.131-.136v-1.129a.134.134,0,0,1,.131-.136h1.546Z" transform="translate(-203.412 -194.486)" fill="#fff"/>
  <path id="Path_20" data-name="Path 20" d="M128.628,74.6a.216.216,0,0,0,.138-.05,1.92,1.92,0,0,1,1.712-.193.219.219,0,0,0,.268-.162.228.228,0,0,0-.157-.278,2.324,2.324,0,0,0-2.1.282.232.232,0,0,0-.066.252A.22.22,0,0,0,128.628,74.6Z" transform="translate(-122.525 -70.739)" fill="#fff"/>
  <path id="Path_21" data-name="Path 21" d="M128.628,95.072a.216.216,0,0,0,.138-.05,1.92,1.92,0,0,1,1.712-.193.219.219,0,0,0,.268-.162.228.228,0,0,0-.157-.278,2.324,2.324,0,0,0-2.1.282.232.232,0,0,0-.066.252A.22.22,0,0,0,128.628,95.072Z" transform="translate(-122.525 -90.18)" fill="#fff"/>
  <path id="Path_22" data-name="Path 22" d="M128.628,116.5a.216.216,0,0,0,.138-.05,1.919,1.919,0,0,1,1.712-.193.219.219,0,0,0,.268-.162.228.228,0,0,0-.157-.278,2.324,2.324,0,0,0-2.1.282.232.232,0,0,0-.066.252A.22.22,0,0,0,128.628,116.5Z" transform="translate(-122.525 -110.527)" fill="#fff"/>
  <path id="Path_23" data-name="Path 23" d="M47.089,74.353a1.921,1.921,0,0,1,1.712.193.215.215,0,0,0,.309-.031.233.233,0,0,0-.03-.32,2.324,2.324,0,0,0-2.1-.282.228.228,0,0,0-.157.278.219.219,0,0,0,.268.162Z" transform="translate(-44.915 -70.738)" fill="#fff"/>
  <path id="Path_24" data-name="Path 24" d="M47.089,94.829a1.921,1.921,0,0,1,1.712.193.215.215,0,0,0,.309-.031.233.233,0,0,0-.03-.32,2.324,2.324,0,0,0-2.1-.282.228.228,0,0,0-.157.278.219.219,0,0,0,.268.162Z" transform="translate(-44.914 -90.18)" fill="#fff"/>
  <path id="Path_25" data-name="Path 25" d="M47.089,116.259a1.921,1.921,0,0,1,1.712.193.215.215,0,0,0,.309-.031.233.233,0,0,0-.03-.32,2.324,2.324,0,0,0-2.1-.282.228.228,0,0,0-.157.278.219.219,0,0,0,.268.162Z" transform="translate(-44.914 -110.528)" fill="#fff"/>
  <path id="Path_26" data-name="Path 26" d="M31.443,16.808H31.11A1.544,1.544,0,0,0,29.6,15.393H18.071v-1a.648.648,0,0,0-.55-.647c-.065-.009-.227-.014-.378-.017a.456.456,0,0,0-.371-.42c-.785-.137-2.711-.328-3.635.869a.18.18,0,0,1-.29,0c-.923-1.2-2.849-1.007-3.635-.869a.456.456,0,0,0-.371.421c-.154,0-.315.008-.378.016a.647.647,0,0,0-.55.647v6.026s0,.006,0,.009V31.924A1.55,1.55,0,0,0,9.435,33.5h8.256L17.2,37.236H16.026a.253.253,0,0,0,0,.505H23.1a.253.253,0,0,0,0-.505H21.927L21.433,33.5H29.6a1.55,1.55,0,0,0,1.521-1.575V20.369h.325a.707.707,0,0,0,.693-.718V17.525a.707.707,0,0,0-.693-.717ZM17.69,37.236l.494-3.737H20.94l.494,3.737ZM29.6,15.9a1.046,1.046,0,0,1,1.02.91H28.481a.707.707,0,0,0-.693.718v.351H18.071V15.9ZM13.48,14.466c.8-1.037,2.665-.8,3.218-.7a.008.008,0,0,1,.006.008v5.9a.007.007,0,0,1,0,.006.008.008,0,0,1-.007,0,4.661,4.661,0,0,0-3.483.8V14.668a.627.627,0,0,0,.269-.2Zm-4.2-.7a.008.008,0,0,1,.006-.008c.553-.1,2.419-.332,3.218.7a.627.627,0,0,0,.269.2v5.805a4.284,4.284,0,0,0-2.78-.83c-.22,0-.455.011-.7.033a.008.008,0,0,1-.007,0,.007.007,0,0,1,0-.006Zm-.927.628a.2.2,0,0,1,.167-.2c.048-.006.185-.011.32-.013v5.48a.471.471,0,0,0,.146.342.438.438,0,0,0,.342.119,4.12,4.12,0,0,1,3.256.772.609.609,0,0,0,.816,0,4.12,4.12,0,0,1,3.256-.772A.438.438,0,0,0,17,20.01a.471.471,0,0,0,.146-.342V14.187h.08a1.789,1.789,0,0,1,.24.014.2.2,0,0,1,.167.2v6.026a.2.2,0,0,1-.06.144.187.187,0,0,1-.142.053,5.732,5.732,0,0,0-4,.908.723.723,0,0,1-.88,0A5.317,5.317,0,0,0,9.223,20.6q-.318,0-.667.023a.183.183,0,0,1-.142-.053.2.2,0,0,1-.061-.144Zm7.826,9.823a2.379,2.379,0,0,0,2.333,2.208h.816v3.189H15.291v-.53a1.4,1.4,0,0,0-.818-1.3.564.564,0,0,1-.117-.069.337.337,0,0,1-.132-.24.4.4,0,0,1,.1-.3,1.245,1.245,0,0,0-.042-1.694,1.146,1.146,0,0,0-1.637,0,1.245,1.245,0,0,0-.049,1.693.41.41,0,0,1,.1.333.342.342,0,0,1-.166.249.558.558,0,0,1-.062.031,1.387,1.387,0,0,0-.816,1.294v.538H8.4v-5.4Zm2.333,1.753a1.971,1.971,0,0,1,0-3.941H20.55a1.971,1.971,0,0,1,0,3.941Zm-5.556.856a.727.727,0,0,1,.029-.989.669.669,0,0,1,.956,0,.727.727,0,0,1,.025.989.912.912,0,0,0-.228.692.839.839,0,0,0,.33.6,1.074,1.074,0,0,0,.217.127.908.908,0,0,1,.518.837v.53H12.14v-.538a.894.894,0,0,1,.514-.827,1.023,1.023,0,0,0,.117-.059.848.848,0,0,0,.408-.61.923.923,0,0,0-.223-.753ZM29.6,32.994H9.435A1.053,1.053,0,0,1,8.4,31.924v-1.8H27.269a.249.249,0,0,0,.244-.253v-.783a1.4,1.4,0,0,0-.818-1.3.561.561,0,0,1-.117-.068.338.338,0,0,1-.132-.241.4.4,0,0,1,.1-.3,1.245,1.245,0,0,0-.041-1.694,1.146,1.146,0,0,0-1.637,0,1.245,1.245,0,0,0-.049,1.693.411.411,0,0,1,.1.333.343.343,0,0,1-.166.249.56.56,0,0,1-.062.031,1.386,1.386,0,0,0-.816,1.294v.539H19.768V26.428h.782a2.379,2.379,0,0,0,2.334-2.208H30.63v5.4H28.25a.253.253,0,0,0,0,.505H30.63v1.8A1.053,1.053,0,0,1,29.6,32.994Zm-4.419-6.165a.727.727,0,0,1,.029-.989.669.669,0,0,1,.956,0,.727.727,0,0,1,.025.989.915.915,0,0,0-.227.692.838.838,0,0,0,.33.6,1.052,1.052,0,0,0,.217.127.908.908,0,0,1,.518.837v.53H24.362v-.539a.9.9,0,0,1,.514-.827,1.021,1.021,0,0,0,.117-.059.849.849,0,0,0,.407-.61A.921.921,0,0,0,25.178,26.829Zm0-5.946a.727.727,0,0,1,.029-.989.669.669,0,0,1,.956,0,.727.727,0,0,1,.025.989.916.916,0,0,0-.228.692.838.838,0,0,0,.33.6,1.029,1.029,0,0,0,.217.127.908.908,0,0,1,.518.837v.624H24.362v-.632a.894.894,0,0,1,.514-.826,1.112,1.112,0,0,0,.117-.059.849.849,0,0,0,.407-.61.921.921,0,0,0-.223-.754Zm5.452,2.882H27.513v-.624a1.4,1.4,0,0,0-.818-1.3.562.562,0,0,1-.117-.068.338.338,0,0,1-.132-.241.4.4,0,0,1,.1-.3,1.245,1.245,0,0,0-.041-1.694,1.146,1.146,0,0,0-1.637,0,1.245,1.245,0,0,0-.049,1.693.411.411,0,0,1,.1.333.342.342,0,0,1-.166.249.56.56,0,0,1-.062.031,1.386,1.386,0,0,0-.816,1.294v.632h-.992a2.379,2.379,0,0,0-2.332-2.187H18.513a2.378,2.378,0,0,0-2.332,2.187H8.4V21.058a.613.613,0,0,0,.182.016,5.32,5.32,0,0,1,3.706.82,1.139,1.139,0,0,0,1.4,0,5.319,5.319,0,0,1,3.706-.82.618.618,0,0,0,.471-.175.663.663,0,0,0,.2-.476V18.381H27.41l-.443.57a.26.26,0,0,0-.03.267.244.244,0,0,0,.22.143h.726v.29a.707.707,0,0,0,.693.718H30.63Zm1.019-4.113a.209.209,0,0,1-.205.212H28.577a.209.209,0,0,1-.205-.212V19.11a.248.248,0,0,0-.244-.253h-.46l.555-.715a.258.258,0,0,0,.054-.158v-.459a.209.209,0,0,1,.205-.212h2.962a.209.209,0,0,1,.205.212Z" transform="translate(-7.914 -13.211)" fill="#fff"/>
</svg>
